<svg width="179" height="160" viewBox="0 0 179 160" fill="none" xmlns="http://www.w3.org/2000/svg">
<g clip-path="url(#clip0_718_49401)">
<path d="M56.7075 14.9923L159.065 2.05896L164.619 45.9124L62.2619 58.8457L56.7075 14.9923Z" fill="#CDD2DC"/>
<path d="M164.756 46.0226L164.741 45.8971L159.172 1.9201L159.049 1.93516L56.5648 14.879L62.1461 58.9841L62.2718 58.969L164.756 46.0226ZM158.956 2.19871L164.485 45.8043L62.3773 58.7005L56.8487 15.0974L158.956 2.19871Z" fill="#1D1D1B"/>
<path d="M144.499 0.138062L52.7626 15.2104L60.4046 61.6095L162.211 44.8806L156.039 7.40691" fill="#DCE6E6"/>
<path d="M162.356 44.986L156.162 7.38677L155.916 7.42693L162.067 44.7777L60.5101 61.4664L52.9084 15.3157L144.519 0.263501L144.479 0.0150146L52.6194 15.1074L52.6395 15.2329L60.3016 61.7525L60.4247 61.7324L162.356 44.986Z" fill="#1D1D1B"/>
<path d="M155.901 7.6579C155.941 7.64599 155.977 7.62253 156.004 7.59042C156.031 7.55831 156.049 7.51896 156.054 7.47719C156.06 7.43535 156.053 7.39269 156.036 7.35437C156.018 7.31606 155.989 7.28374 155.953 7.26133L144.645 0.160652C144.618 0.143155 144.588 0.131826 144.556 0.127486C144.524 0.123145 144.492 0.1259 144.461 0.135552C144.409 0.150816 144.365 0.185002 144.336 0.231423C144.308 0.277844 144.298 0.333159 144.308 0.386548L145.746 9.10866C145.755 9.16581 145.787 9.21688 145.834 9.25107C145.881 9.28527 145.939 9.2999 145.997 9.29189L155.88 7.66292L155.901 7.6579Z" fill="#DCE6E6"/>
<path d="M144.509 0.250986C144.487 0.256921 144.468 0.271141 144.456 0.290737C144.443 0.310333 144.439 0.333825 144.444 0.356405L145.879 9.08354C145.881 9.09591 145.885 9.10774 145.892 9.11835C145.899 9.12896 145.908 9.13814 145.918 9.14537C145.928 9.15259 145.94 9.15773 145.952 9.16047C145.964 9.16321 145.977 9.16351 145.989 9.16135L155.85 7.54242H155.865C155.882 7.53707 155.898 7.52689 155.909 7.51313C155.921 7.49936 155.928 7.48259 155.93 7.46483C155.932 7.44707 155.929 7.42907 155.921 7.413C155.913 7.39694 155.901 7.38348 155.886 7.37426L144.577 0.271066C144.565 0.265597 144.552 0.262771 144.538 0.262771C144.525 0.262771 144.511 0.265597 144.499 0.271066L144.509 0.250986ZM144.426 0.0200697C144.474 0.00561668 144.523 0.00149844 144.572 0.00799504C144.621 0.0144916 144.668 0.0314507 144.71 0.0577192L156.019 7.16091C156.075 7.1957 156.12 7.24598 156.148 7.30567C156.176 7.36536 156.186 7.4319 156.177 7.49724C156.168 7.56424 156.139 7.62703 156.094 7.67788C156.05 7.72872 155.991 7.7654 155.926 7.78338L155.88 7.78087L146.017 9.4023C145.929 9.41479 145.839 9.39326 145.766 9.34206C145.729 9.31571 145.697 9.2821 145.673 9.24327C145.65 9.20444 145.634 9.1612 145.627 9.11617L144.195 0.401584C144.183 0.317654 144.201 0.232116 144.248 0.160973C144.294 0.0898288 144.365 0.037953 144.446 0.0150498L144.426 0.0200697Z" fill="#1D1D1B"/>
<path d="M73.3402 27.3244L139.528 17.1257C140.155 17.0291 140.742 17.4584 140.838 18.0844L140.904 18.5086C141.001 19.1347 140.571 19.7206 139.944 19.8172L73.7559 30.0158C73.1291 30.1124 72.5425 29.6832 72.4458 29.0571L72.3803 28.6329C72.2836 28.0068 72.7134 27.421 73.3402 27.3244Z" fill="#DCE6E6"/>
<path d="M140.144 19.899C140.436 19.8096 140.686 19.618 140.848 19.3593C141.01 19.1007 141.074 18.7923 141.026 18.4909L140.961 18.0642C140.909 17.731 140.727 17.432 140.455 17.2326C140.183 17.0331 139.842 16.9495 139.508 17L73.3189 27.1979C72.9858 27.2505 72.6871 27.4326 72.4879 27.7044C72.2887 27.9762 72.2054 28.3157 72.256 28.6487L72.3213 29.0754C72.3733 29.4086 72.5553 29.7076 72.8276 29.907C73.0998 30.1065 73.44 30.1901 73.7738 30.1396L139.961 19.9416C140.023 19.9316 140.084 19.9173 140.144 19.899ZM73.2033 27.4816C73.2509 27.466 73.2997 27.4543 73.3491 27.4464L139.546 17.2485C139.814 17.208 140.087 17.2751 140.305 17.435C140.524 17.5949 140.67 17.8346 140.712 18.1018L140.778 18.5285C140.798 18.6611 140.793 18.7964 140.761 18.9267C140.729 19.0571 140.672 19.1799 140.592 19.2881C140.513 19.3963 140.413 19.4877 140.298 19.5573C140.183 19.6268 140.056 19.673 139.923 19.6932L73.7361 29.8911C73.4682 29.9322 73.1949 29.8654 72.9763 29.7054C72.7577 29.5454 72.6116 29.3053 72.5701 29.0377L72.5022 28.6111C72.4624 28.3454 72.5293 28.0748 72.6882 27.8581C72.8144 27.68 72.9952 27.5478 73.2033 27.4816Z" fill="#1D1D1B"/>
<path d="M74.5442 35.1219L140.732 24.9232C141.359 24.8267 141.946 25.2559 142.042 25.882L142.108 26.3062C142.205 26.9323 141.775 27.5181 141.148 27.6147L74.96 37.8134C74.3331 37.91 73.7465 37.4807 73.6498 36.8546L73.5843 36.4305C73.4876 35.8044 73.9174 35.2185 74.5442 35.1219Z" fill="#DCE6E6"/>
<path d="M141.348 27.6974C141.639 27.6071 141.889 27.4153 142.051 27.1569C142.213 26.8985 142.276 26.5906 142.23 26.2893L142.165 25.8601C142.139 25.6951 142.081 25.5367 141.995 25.394C141.908 25.2512 141.794 25.127 141.659 25.0284C141.524 24.9298 141.371 24.8587 141.208 24.8192C141.046 24.7798 140.877 24.7727 140.712 24.7984L74.5226 34.9964C74.1892 35.0483 73.89 35.2302 73.6907 35.5022C73.4914 35.7742 73.4083 36.114 73.4596 36.4471L73.5249 36.8738C73.5769 37.2068 73.7591 37.5056 74.0314 37.7047C74.3037 37.9037 74.6439 37.9868 74.9774 37.9355L141.167 27.7401C141.228 27.7297 141.289 27.7155 141.348 27.6974ZM74.5427 35.1194L74.5628 35.2449L140.75 25.0469C140.882 25.0262 141.018 25.0319 141.148 25.0636C141.279 25.0953 141.402 25.1525 141.51 25.2317C141.619 25.311 141.71 25.4109 141.78 25.5256C141.849 25.6403 141.896 25.7677 141.916 25.9003L141.981 26.327C142.022 26.5945 141.955 26.8675 141.795 27.0859C141.635 27.3042 141.395 27.4502 141.127 27.4916L74.9398 37.6896C74.672 37.73 74.399 37.6629 74.1805 37.503C73.9621 37.3431 73.8158 37.1034 73.7737 36.8362L73.7084 36.4095C73.6672 36.1419 73.7341 35.8689 73.8943 35.6506C74.0545 35.4322 74.295 35.2863 74.5628 35.2449L74.5427 35.1194Z" fill="#1D1D1B"/>
<path d="M75.9595 42.8853L126.824 35.0478C127.569 34.933 128.266 35.443 128.38 36.1869L129.038 40.4462C129.153 41.1901 128.643 41.8862 127.898 42.0009L77.0335 49.8384C76.2887 49.9532 75.5918 49.4432 75.4769 48.6992L74.819 44.44C74.7041 43.6961 75.2147 43 75.9595 42.8853Z" fill="#DCE6E6"/>
<path d="M128.132 42.077C128.472 41.9684 128.762 41.7432 128.951 41.4413C129.14 41.1394 129.216 40.7804 129.165 40.4279L128.507 36.161C128.478 35.967 128.411 35.7805 128.31 35.6123C128.21 35.4441 128.076 35.2974 127.918 35.1808C127.761 35.0642 127.581 34.9799 127.391 34.9327C127.2 34.8856 127.002 34.8765 126.808 34.906L75.94 42.7421C75.5502 42.8033 75.2006 43.0162 74.9675 43.3341C74.7344 43.6521 74.6368 44.0492 74.696 44.4388L75.3544 48.7058C75.383 48.8998 75.4497 49.0863 75.5506 49.2545C75.6516 49.4227 75.7848 49.5694 75.9426 49.686C76.1005 49.8026 76.2799 49.8869 76.4705 49.9341C76.6611 49.9812 76.8591 49.9903 77.0532 49.9608L127.921 42.1247C127.993 42.1138 128.063 42.0979 128.132 42.077ZM75.9676 42.8852L75.9877 43.0082L126.846 35.1721C127.006 35.1471 127.17 35.1539 127.328 35.1923C127.486 35.2306 127.635 35.2996 127.766 35.3954C127.897 35.4913 128.008 35.612 128.092 35.7506C128.177 35.8893 128.233 36.0433 128.258 36.2037L128.916 40.4706C128.966 40.7948 128.885 41.1254 128.691 41.3899C128.497 41.6544 128.205 41.8311 127.881 41.8812L77.0155 49.7198C76.6911 49.7689 76.3604 49.6876 76.0957 49.4939C75.8311 49.3001 75.654 49.0095 75.6032 48.6857L74.9448 44.4188C74.9198 44.2582 74.9268 44.0943 74.9653 43.9365C75.0039 43.7786 75.0732 43.6299 75.1694 43.4988C75.2656 43.3678 75.3867 43.257 75.5258 43.1728C75.665 43.0886 75.8194 43.0327 75.9802 43.0082L75.9676 42.8852Z" fill="#1D1D1B"/>
<path d="M132.889 34.1136L141.055 32.8553C141.8 32.7406 142.496 33.2506 142.611 33.9945L143.269 38.2537C143.384 38.9976 142.874 39.6937 142.129 39.8085L133.963 41.0668C133.218 41.1815 132.521 40.6715 132.406 39.9276L131.748 35.6684C131.633 34.9245 132.144 34.2284 132.889 34.1136Z" fill="#FF733C"/>
<path d="M142.361 39.8833C142.702 39.7783 142.994 39.5542 143.183 39.2518C143.372 38.9494 143.446 38.5891 143.391 38.2368L142.735 33.9698C142.707 33.7756 142.64 33.589 142.54 33.4206C142.439 33.2522 142.306 33.1055 142.148 32.9888C141.99 32.8721 141.81 32.7878 141.619 32.7408C141.429 32.6938 141.231 32.685 141.036 32.7148L132.869 33.9698C132.675 33.998 132.488 34.0644 132.319 34.1651C132.151 34.2659 132.004 34.3989 131.887 34.5567C131.77 34.7144 131.686 34.8937 131.639 35.0842C131.592 35.2747 131.583 35.4726 131.613 35.6666L132.271 39.9335C132.3 40.1275 132.366 40.314 132.467 40.4822C132.568 40.6504 132.701 40.7971 132.859 40.9137C133.017 41.0303 133.197 41.1146 133.387 41.1618C133.578 41.2089 133.776 41.218 133.97 41.1885L142.137 39.9335C142.213 39.9226 142.288 39.9058 142.361 39.8833ZM132.907 34.2384L141.074 32.9834C141.399 32.9343 141.729 33.0156 141.994 33.2094C142.259 33.4031 142.436 33.6937 142.486 34.0175L143.145 38.2844C143.194 38.6085 143.113 38.9388 142.919 39.2031C142.725 39.4675 142.434 39.6443 142.109 39.695L133.942 40.95C133.781 40.975 133.617 40.968 133.459 40.9296C133.301 40.8911 133.152 40.8218 133.021 40.7257C132.89 40.6297 132.779 40.5087 132.695 40.3697C132.61 40.2308 132.554 40.0765 132.53 39.9159L131.872 35.649C131.822 35.3249 131.904 34.9946 132.098 34.7303C132.292 34.466 132.583 34.2891 132.907 34.2384Z" fill="#1D1D1B"/>
<path d="M75.7665 155.731L178.872 158.288L177.336 58.2487L74.1105 55.942L74.4698 77.5854L150.377 103.558L75.4876 138.949L75.7665 155.731Z" fill="#CDD2DC"/>
<path d="M75.6434 155.869L179 158.409L177.46 58.1256L73.9823 55.8115L74.3442 77.6757L150.045 103.579L75.3619 138.871L75.6434 155.869ZM178.749 158.17L75.8947 155.6L75.6208 139.034L150.711 103.541L150.42 103.441L74.593 77.495L74.2361 56.07L177.213 58.3716L178.749 158.17Z" fill="#1D1D1B"/>
<path d="M178.157 105.909L178.161 106.16L176.653 106.185L176.649 105.934L178.157 105.909Z" fill="#1D1D1B"/>
<path d="M121.993 107.085L125.029 107.035V106.784L121.993 106.834V107.085ZM128.067 106.985L131.102 106.924V106.673L128.067 106.724V106.985ZM134.138 106.884L137.176 106.834V106.583L134.141 106.633L134.138 106.884ZM140.212 106.784L143.25 106.734V106.483L140.212 106.533V106.784ZM146.286 106.683L149.322 106.633V106.382L146.283 106.432L146.286 106.683ZM152.36 106.583L155.395 106.53V106.279L152.36 106.332V106.583ZM158.431 106.48L161.469 106.422V106.171L158.434 106.222L158.431 106.48ZM164.505 106.38L167.543 106.329V106.078L164.508 106.129L164.505 106.38ZM170.579 106.279L173.615 106.229V105.978L170.576 106.028L170.579 106.279Z" fill="#1D1D1B"/>
<path d="M118.729 107.238L118.734 107.489L117.226 107.519L117.221 107.268L118.729 107.238Z" fill="#1D1D1B"/>
<path d="M47.3648 79.242L125.931 139.732C125.99 139.758 126.036 139.805 126.061 139.864C126.086 139.923 126.087 139.99 126.065 140.05C126.042 140.11 125.998 140.159 125.94 140.187C125.882 140.215 125.816 140.22 125.755 140.201L124.415 140.129C116.997 139.722 109.829 137.307 103.678 133.143L62.5558 105.308L60.1408 96.2721L41.3387 81.7921" fill="#5A698C"/>
<path d="M115.381 138.751C118.325 139.587 121.352 140.092 124.408 140.257L125.75 140.329C125.832 140.333 125.913 140.31 125.981 140.264C126.049 140.218 126.101 140.152 126.129 140.075C126.157 139.998 126.16 139.914 126.137 139.835C126.114 139.756 126.066 139.687 126.001 139.637L47.4376 79.1466L47.2843 79.3449L125.848 139.835C125.875 139.851 125.896 139.876 125.907 139.906C125.918 139.936 125.918 139.968 125.908 139.998C125.897 140.028 125.876 140.053 125.848 140.069C125.821 140.085 125.789 140.091 125.757 140.086L124.418 140.013C117.022 139.609 109.875 137.202 103.744 133.051L62.6663 105.23L60.2513 96.1943L41.4165 81.6892L41.2632 81.8875L60.0302 96.3424L62.4477 105.378L62.4854 105.406L103.61 133.256C107.217 135.7 111.191 137.555 115.381 138.751Z" fill="#1D1D1B"/>
<path d="M48.5761 77.48L60.5756 86.7216C60.7607 86.863 60.9159 87.0397 61.0321 87.2415C61.1484 87.4434 61.2232 87.6662 61.2525 87.8972C61.2817 88.1281 61.2647 88.3626 61.2024 88.587C61.1401 88.8113 61.0338 89.021 60.8897 89.204L57.2861 93.8725C56.9988 94.2438 56.5758 94.4862 56.1099 94.5464C55.644 94.6066 55.1732 94.4798 54.8007 94.1938L41.7005 84.1037C37.7888 86.2645 33.224 86.9314 28.8565 85.9802C24.4891 85.029 20.6166 82.5247 17.9605 78.9336C15.3044 75.3425 14.0458 70.9096 14.419 66.4604C14.7922 62.0113 16.7719 57.8493 19.9892 54.7498C23.2066 51.6502 27.4423 49.8244 31.9073 49.6124C36.3724 49.4004 40.7624 50.8167 44.2596 53.5974C47.7569 56.3781 50.1229 60.3338 50.917 64.7275C51.7111 69.1212 50.8791 73.6534 48.5761 77.48ZM22.9436 60.4423C21.4459 62.3819 20.5578 64.7215 20.3914 67.1652C20.225 69.609 20.7879 72.0471 22.0089 74.1713C23.2299 76.2955 25.0542 78.0104 27.251 79.0991C29.4478 80.1877 31.9184 80.6013 34.3506 80.2875C36.7827 79.9736 39.067 78.9465 40.9147 77.336C42.7623 75.7254 44.0903 73.6038 44.7307 71.2394C45.3712 68.875 45.2952 66.374 44.5125 64.0528C43.7298 61.7315 42.2755 59.6942 40.3335 58.1984C37.7295 56.1928 34.4345 55.3025 31.1733 55.7233C27.9121 56.1441 24.9518 57.8416 22.9436 60.4423Z" fill="#FF733C"/>
<path d="M55.3611 94.6255C55.7266 94.7301 56.1151 94.7226 56.4763 94.604C56.8374 94.4854 57.1546 94.2612 57.3866 93.9604L60.9927 89.2793C61.1444 89.0816 61.2555 88.856 61.3197 88.6153C61.384 88.3747 61.4001 88.1238 61.3672 87.8769C61.3343 87.6301 61.253 87.3921 61.1279 87.1766C61.0029 86.9612 60.8365 86.7725 60.6384 86.6213L48.7243 77.4474C51.0089 73.5868 51.8135 69.0295 50.9888 64.6213C50.1641 60.2131 47.766 56.2535 44.2398 53.4775C40.7135 50.7015 36.2987 49.2976 31.8146 49.5265C27.3306 49.7553 23.082 51.6014 19.8574 54.722C16.6329 57.8426 14.6514 62.0257 14.2809 66.4949C13.9104 70.9641 15.1759 75.4158 17.8427 79.0236C20.5094 82.6314 24.3961 85.1504 28.7814 86.1128C33.1666 87.0752 37.7526 86.4158 41.688 84.2569L54.7228 94.2967C54.9124 94.4463 55.1292 94.558 55.3611 94.6255ZM37.818 50.4502C40.516 51.2231 42.9999 52.6054 45.0776 54.4902C47.1553 56.3751 48.7711 58.712 49.8001 61.3202C50.8291 63.9284 51.2437 66.7381 51.0119 69.5319C50.78 72.3258 49.9079 75.0289 48.463 77.4323L48.4052 77.5277L60.4952 86.8195C60.6665 86.9513 60.8102 87.1156 60.9179 87.3028C61.0257 87.4901 61.0955 87.6968 61.1233 87.911C61.151 88.1252 61.1363 88.3428 61.0798 88.5513C61.0234 88.7598 60.9263 88.9552 60.7942 89.1262L57.1881 93.7972C56.9212 94.1423 56.5282 94.3675 56.0952 94.4235C55.6622 94.4795 55.2247 94.3617 54.8786 94.0959L41.7131 83.9582L41.6402 83.9984C39.0075 85.4541 36.056 86.2389 33.0471 86.2834C30.0382 86.3279 27.0647 85.6307 24.3899 84.2535C21.7152 82.8763 19.4217 80.8616 17.7125 78.3878C16.0034 75.9141 14.9313 73.0575 14.5912 70.0712C14.2512 67.0848 14.6536 64.0608 15.7629 61.2668C16.8722 58.4728 18.6541 55.9952 20.9509 54.0532C23.2477 52.1113 25.9885 50.7649 28.9305 50.1334C31.8726 49.5019 34.9252 49.6047 37.818 50.4327V50.4502ZM29.3341 80.0678C32.3356 80.9282 35.5504 80.64 38.3504 79.2593C41.1504 77.8786 43.3344 75.5047 44.4755 72.6015C45.6165 69.6983 45.6328 66.4744 44.521 63.5599C43.4092 60.6454 41.2492 58.2497 38.4633 56.8409C35.6773 55.4322 32.4655 55.1116 29.4556 55.9419C26.4456 56.7722 23.8538 58.6937 22.1865 61.3309C20.5193 63.968 19.8966 67.1313 20.4399 70.2027C20.9833 73.274 22.6538 76.0325 25.1249 77.9393C26.3816 78.9003 27.8102 79.6133 29.3341 80.0402V80.0678ZM36.1418 56.2231C39.0703 57.0535 41.586 58.9397 43.2018 61.5164C44.8177 64.0932 45.4186 67.1772 44.8883 70.1712C44.3581 73.1652 42.7342 75.8561 40.3314 77.7228C37.9285 79.5896 34.9176 80.4992 31.8817 80.2757C28.8458 80.0522 26.0009 78.7114 23.8981 76.5129C21.7952 74.3144 20.584 71.4148 20.499 68.3755C20.414 65.3362 21.4613 62.3736 23.438 60.0613C25.4146 57.749 28.1801 56.2516 31.1988 55.8592C32.8541 55.6436 34.536 55.7675 36.1418 56.2231Z" fill="#1D1D1B"/>
<path d="M72.2936 108.694C72.5198 122.32 72.8289 143.698 73.0475 157.322L176.163 159.885L174.625 59.845L71.399 57.5383L72.1353 105.328L111.755 105.878L72.2936 108.694Z" fill="#DCE6E6"/>
<path d="M72.9319 157.455L176.288 160L174.751 59.717L71.2708 57.4028V57.5334L72.0096 105.446L108.81 105.948L72.1629 108.568V108.686C72.276 115.488 72.4142 124.221 72.5423 132.955C72.6705 141.69 72.8112 150.49 72.9243 157.302L72.9319 157.455ZM176.035 159.762L73.1781 157.191C73.0676 150.384 72.9268 141.672 72.7987 132.96C72.6705 124.248 72.5348 115.596 72.4217 108.812L111.765 105.998V105.747L72.2684 105.198L71.5346 57.6614L174.502 59.963L176.035 159.762Z" fill="#1D1D1B"/>
<path d="M36.8429 111.028L135.299 98.8724C135.332 98.8782 135.366 98.8774 135.399 98.8701C135.431 98.8628 135.462 98.8492 135.49 98.83C135.517 98.8107 135.541 98.7863 135.558 98.7581C135.576 98.7298 135.589 98.6983 135.594 98.6654C135.6 98.6324 135.599 98.5986 135.592 98.566C135.585 98.5333 135.571 98.5024 135.552 98.475C135.533 98.4476 135.508 98.4243 135.48 98.4063C135.452 98.3884 135.42 98.3762 135.387 98.3704L134.196 97.753C127.602 94.3348 120.2 92.7731 112.785 93.235L63.1991 96.3098L56.512 102.868L32.9503 105.777" fill="#5A698C"/>
<path d="M36.8579 111.154L135.314 98.9954C135.397 98.9856 135.474 98.9497 135.534 98.8928C135.594 98.836 135.635 98.7613 135.649 98.6798C135.664 98.5983 135.652 98.5142 135.615 98.4399C135.578 98.3657 135.519 98.3053 135.445 98.2675L134.254 97.6501C127.639 94.2217 120.215 92.6556 112.778 93.1196L63.1513 96.1868L56.4617 102.748L32.9427 105.652L32.9728 105.903L56.5773 102.986L63.2619 96.4327L112.793 93.3706C120.187 92.9146 127.565 94.4763 134.138 97.8885L135.329 98.5085C135.353 98.5224 135.373 98.5435 135.385 98.5688C135.396 98.5941 135.4 98.6224 135.395 98.6498C135.39 98.6773 135.377 98.7025 135.357 98.7222C135.337 98.7418 135.312 98.7548 135.284 98.7595L36.8278 110.918L36.8579 111.154Z" fill="#1D1D1B"/>
<path d="M65.3929 105.664C63.2403 105.664 61.4953 103.921 61.4953 101.771C61.4953 99.6214 63.2403 97.8784 65.3929 97.8784C67.5455 97.8784 69.2905 99.6214 69.2905 101.771C69.2905 103.921 67.5455 105.664 65.3929 105.664Z" fill="#CDD2DC"/>
<path d="M64.2872 105.639C65.248 105.914 66.277 105.822 67.1735 105.381C68.07 104.94 68.7698 104.181 69.1364 103.252C69.5029 102.323 69.51 101.291 69.1562 100.357C68.8024 99.4238 68.1131 98.6552 67.2227 98.2015C66.3324 97.7479 65.3047 97.6418 64.3403 97.9038C63.3758 98.1659 62.5436 98.7774 62.006 99.619C61.4685 100.461 61.264 101.472 61.4325 102.456C61.6011 103.44 62.1305 104.326 62.9177 104.941C63.3256 105.259 63.7904 105.496 64.2872 105.639ZM66.4182 98.1395C66.9515 98.293 67.4442 98.5623 67.8611 98.928C68.2781 99.2937 68.6091 99.7469 68.8305 100.255C69.0519 100.763 69.1582 101.314 69.1418 101.868C69.1254 102.422 68.9868 102.966 68.7357 103.46C68.4847 103.955 68.1275 104.387 67.6896 104.728C67.2517 105.068 66.7439 105.308 66.2026 105.43C65.6612 105.552 65.0996 105.553 64.5578 105.433C64.016 105.313 63.5075 105.075 63.0684 104.736C62.4783 104.278 62.0376 103.656 61.8023 102.948C61.5669 102.24 61.5475 101.478 61.7465 100.759C61.9455 100.039 62.3539 99.3956 62.9199 98.9087C63.4859 98.4219 64.184 98.1139 64.9255 98.024C65.4258 97.9632 65.9333 98.0024 66.4182 98.1395Z" fill="#1D1D1B"/>
<path d="M20.8175 131.552C17.5184 131.959 14.1705 131.466 11.1288 130.127C8.08701 128.788 5.46465 126.652 3.5396 123.945C1.61454 121.238 0.458511 118.062 0.194 114.752C-0.0705109 111.442 0.566353 108.123 2.03711 105.145C3.50787 102.168 5.75772 99.6431 8.54825 97.8389C11.3388 96.0346 14.566 95.018 17.888 94.8968C21.21 94.7756 24.5029 95.5542 27.4178 97.1502C30.3327 98.7462 32.7611 101.1 34.4455 103.963L50.8628 101.934C51.329 101.877 51.7989 102.007 52.1693 102.295C52.5397 102.584 52.7802 103.008 52.838 103.473L53.5642 109.329C53.6211 109.795 53.4905 110.264 53.2012 110.634C52.912 111.004 52.4876 111.244 52.0213 111.302L36.9836 113.159C37.0146 117.671 35.3852 122.037 32.4049 125.428C29.4245 128.819 25.3009 130.998 20.8175 131.552ZM20.0762 125.578C22.5103 125.279 24.8008 124.265 26.658 122.665C28.5152 121.066 29.8557 118.952 30.51 116.591C31.1643 114.23 31.1029 111.729 30.3336 109.403C29.5644 107.077 28.1218 105.031 26.1883 103.524C24.2549 102.017 21.9174 101.116 19.4715 100.936C17.0257 100.756 14.5813 101.305 12.4476 102.513C10.3138 103.72 8.58655 105.533 7.48423 107.721C6.38192 109.909 5.95407 112.375 6.25478 114.806C6.65854 118.064 8.34117 121.029 10.9329 123.049C13.5246 125.07 16.8133 125.979 20.0762 125.578Z" fill="#FF733C"/>
<path d="M13.4872 131.113C16.2487 131.896 19.1545 132.029 21.976 131.5C24.7974 130.972 27.4577 129.796 29.7473 128.067C32.0369 126.337 33.8935 124.101 35.171 121.533C36.4484 118.966 37.1119 116.137 37.1093 113.27L52.0364 111.427C52.2838 111.397 52.5227 111.318 52.7396 111.195C52.9564 111.073 53.147 110.908 53.3003 110.712C53.4536 110.516 53.5667 110.291 53.6332 110.051C53.6996 109.812 53.718 109.561 53.6874 109.314L52.9637 103.458C52.9015 102.959 52.6438 102.506 52.2471 102.197C51.8505 101.887 51.3472 101.748 50.8478 101.809L34.5134 103.817C32.967 101.214 30.8058 99.0284 28.2186 97.452C25.6315 95.8756 22.6971 94.9561 19.672 94.7739C16.647 94.5916 13.6232 95.1522 10.8651 96.4066C8.10702 97.661 5.6985 99.571 3.85007 101.97C2.00164 104.368 0.769562 107.183 0.261532 110.167C-0.246498 113.151 -0.0150185 116.214 0.935734 119.088C1.88649 121.962 3.52757 124.56 5.71556 126.654C7.90355 128.749 10.5718 130.276 13.4872 131.103V131.113ZM51.5288 102.11C51.8399 102.199 52.1182 102.376 52.329 102.621C52.5399 102.866 52.6741 103.168 52.7149 103.488L53.4387 109.344C53.4919 109.777 53.3709 110.213 53.1023 110.556C52.8337 110.9 52.4394 111.123 52.0063 111.176L36.8555 113.049V113.159C36.882 117.591 35.2947 121.882 32.389 125.233C29.4833 128.583 25.4575 130.764 21.0613 131.37C16.6652 131.975 12.1984 130.964 8.49314 128.525C4.78783 126.086 2.09659 122.384 0.92067 118.11C-0.255245 113.836 0.164345 109.281 2.1013 105.293C4.03826 101.305 7.3605 98.1564 11.4492 96.4333C15.538 94.7102 20.1144 94.5302 24.3261 95.9269C28.5378 97.3237 32.0976 100.202 34.3425 104.025L34.3852 104.096L50.8829 102.06C51.0994 102.033 51.3192 102.05 51.5288 102.11ZM15.1332 125.32C17.7216 126.054 20.4781 125.937 22.9944 124.985C25.5108 124.032 27.6531 122.296 29.1042 120.032C30.5552 117.769 31.2379 115.099 31.051 112.418C30.8642 109.737 29.8177 107.187 28.0667 105.146C26.3156 103.105 23.9531 101.682 21.3289 101.087C18.7048 100.492 15.9586 100.757 13.497 101.843C11.0354 102.929 8.9894 104.777 7.66193 107.115C6.33445 109.453 5.79614 112.156 6.12668 114.823C6.41692 117.268 7.42812 119.571 9.0318 121.44C10.6355 123.309 12.7592 124.659 15.1332 125.32ZM21.9183 101.495C24.8457 102.326 27.3598 104.213 28.9727 106.79C30.5856 109.368 31.1823 112.452 30.647 115.444C30.1117 118.436 28.4825 121.123 26.0756 122.983C23.6688 124.843 20.6559 125.744 17.6217 125.51C14.5875 125.276 11.7484 123.925 9.65541 121.719C7.56239 119.512 6.3647 116.608 6.2948 113.569C6.2249 110.53 7.28776 107.574 9.27711 105.274C11.2665 102.974 14.0404 101.494 17.0607 101.121C18.6853 100.922 20.3334 101.049 21.9082 101.495H21.9183Z" fill="#1D1D1B"/>
<path d="M175.341 105.058L175.346 105.309L173.839 105.339L173.834 105.088L175.341 105.058Z" fill="#1D1D1B"/>
<path d="M119.206 105.875L122.244 105.825V105.574L119.209 105.624L119.206 105.875ZM125.28 105.775L128.316 105.725V105.474L125.277 105.524L125.28 105.775ZM131.354 105.669L134.39 105.619V105.368L131.351 105.418L131.354 105.669ZM137.428 105.569L140.463 105.519V105.268L137.428 105.318V105.569ZM143.499 105.469L146.537 105.418V105.167L143.502 105.218L143.499 105.469ZM149.573 105.368L152.611 105.318V105.067L149.575 105.117L149.573 105.368ZM155.647 105.268L158.683 105.218V104.967L155.644 105.017L155.647 105.268ZM161.721 105.167L164.756 105.117V104.866L161.718 104.916L161.721 105.167ZM167.795 105.064L170.83 105.014V104.763L167.795 104.813V105.064Z" fill="#1D1D1B"/>
<path d="M116.166 105.673L116.171 105.924L114.663 105.949L114.659 105.698L116.166 105.673Z" fill="#1D1D1B"/>
<path d="M93.7621 82.1987L144.572 82.8563C144.936 82.8674 145.282 83.0194 145.536 83.2803C145.79 83.5411 145.933 83.8904 145.934 84.2544L145.982 88.6217C145.987 88.7993 145.956 88.9761 145.891 89.1416C145.827 89.3071 145.729 89.4579 145.605 89.5851C145.481 89.7122 145.332 89.8131 145.168 89.8817C145.004 89.9504 144.828 89.9854 144.65 89.9846L93.8324 89.327C93.4682 89.316 93.1225 89.1639 92.8684 88.9031C92.6142 88.6422 92.4715 88.2929 92.4704 87.929L92.4226 83.5616C92.4179 83.3835 92.4491 83.2062 92.5145 83.0404C92.5798 82.8745 92.6778 82.7235 92.8028 82.5963C92.9278 82.4692 93.0772 82.3684 93.242 82.3001C93.4068 82.2318 93.5836 82.1973 93.7621 82.1987Z" fill="#DCE6E6"/>
<path d="M93.8098 89.4525H93.8349L144.66 90.1076C144.854 90.1087 145.046 90.0708 145.225 89.9961C145.404 89.9213 145.567 89.8113 145.702 89.6727C145.838 89.534 145.944 89.3695 146.014 89.1889C146.085 89.0084 146.118 88.8155 146.113 88.6217L146.065 84.2544C146.063 83.8575 145.907 83.4768 145.63 83.1922C145.353 82.9076 144.977 82.7413 144.58 82.7284L93.7595 82.0758C93.5655 82.0747 93.3732 82.1126 93.1941 82.1874C93.0151 82.2621 92.853 82.3721 92.7174 82.5107C92.5819 82.6494 92.4757 82.8139 92.4051 82.9945C92.3346 83.175 92.3012 83.3679 92.307 83.5617L92.3547 87.929C92.3562 88.3206 92.5078 88.6968 92.7784 88.9802C93.0491 89.2636 93.4181 89.4326 93.8098 89.4525ZM144.597 82.9844C144.924 82.9998 145.232 83.1399 145.459 83.3757C145.685 83.6116 145.812 83.9252 145.813 84.2519L145.861 88.6192C145.866 88.7805 145.838 88.941 145.779 89.0913C145.721 89.2416 145.632 89.3785 145.52 89.494C145.407 89.6094 145.272 89.7011 145.123 89.7634C144.974 89.8257 144.814 89.8574 144.652 89.8566L93.8324 89.199C93.6698 89.1974 93.5092 89.1629 93.3602 89.0978C93.2112 89.0327 93.077 88.9382 92.9654 88.82C92.7324 88.5824 92.6001 88.2641 92.596 87.9315L92.5482 83.5642C92.5439 83.403 92.5719 83.2426 92.6307 83.0925C92.6895 82.9424 92.7779 82.8056 92.8906 82.6902C93.0034 82.5748 93.1381 82.4832 93.2869 82.4208C93.4357 82.3583 93.5956 82.3264 93.757 82.3268L144.572 82.9844H144.597Z" fill="#1D1D1B"/>
<path d="M94.3324 134.617L145.153 135.287C145.516 135.298 145.862 135.45 146.116 135.71C146.37 135.97 146.513 136.319 146.515 136.682L146.562 141.05C146.567 141.227 146.537 141.404 146.472 141.57C146.407 141.735 146.31 141.886 146.186 142.013C146.061 142.14 145.913 142.241 145.749 142.31C145.585 142.378 145.408 142.413 145.23 142.413L94.4103 141.755C94.0468 141.744 93.7017 141.592 93.448 141.332C93.1944 141.071 93.0519 140.723 93.0508 140.36L93.0031 135.99C92.9959 135.811 93.0251 135.633 93.0888 135.466C93.1525 135.3 93.2494 135.147 93.3737 135.019C93.4979 134.891 93.647 134.789 93.8118 134.72C93.9766 134.651 94.1537 134.616 94.3324 134.617Z" fill="#DCE6E6"/>
<path d="M94.3877 141.868H94.4128L145.233 142.526C145.425 142.529 145.616 142.492 145.794 142.418C145.972 142.344 146.132 142.235 146.266 142.096C146.403 141.957 146.51 141.791 146.582 141.609C146.655 141.427 146.69 141.233 146.685 141.037L146.638 136.67C146.636 136.273 146.48 135.891 146.202 135.607C145.925 135.322 145.548 135.156 145.15 135.144L94.3324 134.486C94.1383 134.486 93.946 134.524 93.767 134.599C93.5879 134.674 93.4258 134.785 93.2901 134.923C93.1545 135.062 93.0481 135.227 92.9772 135.407C92.9063 135.588 92.8724 135.781 92.8774 135.975L92.9252 140.342C92.9291 140.743 93.0875 141.127 93.3674 141.414C93.6349 141.693 94.0012 141.856 94.3877 141.868ZM145.175 135.402C145.499 135.418 145.806 135.556 146.031 135.789C146.257 136.023 146.385 136.333 146.389 136.657L146.437 141.025C146.44 141.187 146.411 141.349 146.352 141.5C146.292 141.651 146.203 141.789 146.09 141.906C145.978 142.02 145.844 142.111 145.696 142.172C145.547 142.233 145.388 142.263 145.228 142.26L94.4103 141.602C94.2477 141.6 94.0872 141.565 93.938 141.5C93.7887 141.436 93.6538 141.342 93.5408 141.225C93.3079 140.987 93.1764 140.668 93.1739 140.334L93.1262 135.967C93.1218 135.806 93.1499 135.646 93.2087 135.495C93.2675 135.345 93.3559 135.208 93.4686 135.093C93.5813 134.978 93.7161 134.886 93.8649 134.824C94.0137 134.761 94.1735 134.729 94.3349 134.73L145.155 135.39L145.175 135.402Z" fill="#1D1D1B"/>
<path d="M151.206 135.352L159.366 135.458C159.73 135.469 160.076 135.621 160.33 135.882C160.584 136.142 160.727 136.492 160.728 136.856L160.776 141.223C160.781 141.4 160.75 141.577 160.685 141.742C160.621 141.908 160.523 142.058 160.399 142.185C160.275 142.312 160.126 142.413 159.962 142.481C159.798 142.55 159.622 142.584 159.444 142.583L151.284 142.478C150.921 142.467 150.576 142.315 150.322 142.055C150.068 141.794 149.926 141.446 149.925 141.082L149.877 136.715C149.872 136.538 149.902 136.361 149.966 136.195C150.031 136.03 150.128 135.879 150.252 135.752C150.376 135.625 150.525 135.524 150.689 135.455C150.852 135.386 151.029 135.351 151.206 135.352Z" fill="#FF733C"/>
<path d="M151.262 142.606H151.287L159.446 142.711C159.641 142.713 159.834 142.676 160.014 142.601C160.194 142.527 160.357 142.416 160.494 142.278C160.63 142.139 160.737 141.974 160.808 141.792C160.879 141.611 160.912 141.417 160.906 141.223L160.859 136.856C160.852 136.454 160.689 136.071 160.404 135.789C160.269 135.648 160.107 135.535 159.928 135.457C159.749 135.379 159.556 135.338 159.361 135.335L151.201 135.227C151.007 135.226 150.815 135.265 150.636 135.34C150.457 135.415 150.295 135.525 150.159 135.664C150.023 135.803 149.917 135.967 149.846 136.148C149.775 136.328 149.741 136.521 149.746 136.715L149.794 141.082C149.797 141.476 149.951 141.853 150.224 142.137C150.497 142.42 150.868 142.588 151.262 142.606ZM159.399 135.586C159.719 135.596 160.023 135.731 160.246 135.962C160.478 136.201 160.61 136.52 160.615 136.853L160.655 141.22C160.658 141.383 160.628 141.545 160.568 141.696C160.508 141.847 160.419 141.985 160.306 142.101C160.194 142.216 160.061 142.307 159.913 142.368C159.765 142.429 159.606 142.46 159.446 142.458L151.287 142.352C150.956 142.341 150.643 142.203 150.412 141.966C150.182 141.729 150.052 141.413 150.05 141.082L150.003 136.715C149.998 136.554 150.026 136.394 150.085 136.244C150.144 136.094 150.232 135.957 150.345 135.842C150.458 135.727 150.593 135.635 150.742 135.573C150.89 135.511 151.05 135.479 151.211 135.48L159.371 135.586H159.399Z" fill="#1D1D1B"/>
<path d="M94.1868 121.088L145.004 121.746C145.368 121.757 145.713 121.908 145.968 122.169C146.222 122.429 146.365 122.778 146.366 123.141L146.414 127.509C146.419 127.686 146.388 127.863 146.324 128.028C146.259 128.194 146.162 128.345 146.037 128.472C145.913 128.599 145.765 128.7 145.6 128.769C145.436 128.837 145.26 128.872 145.082 128.871L94.2647 128.214C93.9009 128.203 93.5555 128.051 93.3015 127.791C93.0474 127.53 92.9044 127.182 92.9026 126.818L92.8549 122.448C92.8498 122.271 92.8806 122.094 92.9453 121.929C93.0101 121.764 93.1075 121.613 93.2318 121.486C93.3561 121.359 93.5047 121.258 93.6688 121.19C93.8328 121.122 94.009 121.087 94.1868 121.088Z" fill="#DCE6E6"/>
<path d="M94.2395 128.339H94.2646L145.075 129.012C145.267 129.015 145.459 128.978 145.637 128.904C145.815 128.83 145.976 128.721 146.11 128.583C146.246 128.442 146.353 128.277 146.425 128.095C146.496 127.913 146.531 127.719 146.527 127.524L146.479 123.156C146.477 122.76 146.321 122.379 146.044 122.095C145.767 121.81 145.391 121.644 144.994 121.63L94.1741 120.973C93.98 120.972 93.7877 121.011 93.6087 121.086C93.4297 121.161 93.2675 121.271 93.1319 121.41C92.9962 121.549 92.8898 121.713 92.8189 121.894C92.748 122.074 92.7141 122.267 92.7191 122.461L92.7669 126.828C92.7719 127.229 92.9301 127.612 93.2092 127.9C93.4816 128.176 93.8516 128.334 94.2395 128.339ZM145.027 121.874C145.354 121.889 145.662 122.029 145.888 122.265C146.115 122.501 146.242 122.815 146.243 123.141L146.291 127.509C146.294 127.671 146.264 127.833 146.204 127.984C146.144 128.135 146.055 128.273 145.942 128.39C145.83 128.504 145.697 128.595 145.549 128.656C145.401 128.717 145.242 128.747 145.082 128.743L94.2621 128.086C94.0993 128.084 93.9385 128.05 93.7891 127.986C93.6398 127.921 93.5049 127.827 93.3926 127.709C93.1617 127.469 93.0305 127.151 93.0257 126.818L92.978 122.451C92.9736 122.29 93.0016 122.129 93.0605 121.979C93.1193 121.829 93.2077 121.692 93.3204 121.577C93.4331 121.462 93.5678 121.37 93.7167 121.308C93.8655 121.245 94.0253 121.213 94.1867 121.214L145.007 121.874H145.027Z" fill="#1D1D1B"/>
<path d="M151.061 121.823L159.22 121.929C159.584 121.941 159.929 122.093 160.183 122.354C160.436 122.614 160.579 122.963 160.58 123.327L160.628 127.694C160.633 127.872 160.602 128.048 160.537 128.213C160.473 128.378 160.375 128.529 160.251 128.656C160.127 128.783 159.979 128.884 159.815 128.952C159.652 129.021 159.476 129.055 159.298 129.055L151.138 128.949C150.775 128.938 150.429 128.787 150.175 128.526C149.921 128.266 149.778 127.917 149.776 127.554L149.729 123.186C149.724 123.009 149.754 122.832 149.819 122.667C149.884 122.501 149.981 122.35 150.105 122.223C150.23 122.096 150.378 121.995 150.542 121.926C150.706 121.858 150.883 121.823 151.061 121.823Z" fill="#FF733C"/>
<path d="M151.106 129.077H151.131L159.291 129.183C159.483 129.186 159.675 129.15 159.853 129.077C160.031 129.003 160.192 128.894 160.326 128.756C160.6 128.471 160.751 128.089 160.746 127.694L160.698 123.327C160.693 122.927 160.535 122.545 160.256 122.258C159.981 121.974 159.605 121.81 159.21 121.803L151.051 121.698C150.858 121.694 150.667 121.73 150.488 121.804C150.31 121.877 150.149 121.986 150.015 122.125C149.879 122.265 149.772 122.431 149.701 122.613C149.629 122.794 149.594 122.989 149.598 123.184L149.646 127.551C149.649 127.952 149.807 128.337 150.088 128.623C150.355 128.901 150.72 129.064 151.106 129.077ZM159.233 122.049C159.554 122.06 159.859 122.195 160.082 122.426C160.315 122.664 160.447 122.984 160.449 123.317L160.497 127.684C160.501 127.848 160.473 128.01 160.414 128.163C160.355 128.315 160.266 128.455 160.153 128.573C160.041 128.687 159.908 128.778 159.76 128.839C159.612 128.901 159.453 128.931 159.293 128.929L151.134 128.824C150.971 128.821 150.811 128.786 150.662 128.721C150.513 128.656 150.379 128.562 150.267 128.445C150.033 128.206 149.901 127.887 149.897 127.554L149.849 123.186C149.847 123.024 149.876 122.862 149.936 122.711C149.996 122.56 150.085 122.422 150.199 122.305C150.31 122.191 150.444 122.1 150.592 122.039C150.739 121.978 150.898 121.948 151.058 121.951L159.218 122.057L159.233 122.049Z" fill="#1D1D1B"/>
<path d="M151.061 83.2529L159.22 83.3609C159.584 83.3713 159.929 83.5229 160.183 83.7834C160.437 84.0439 160.579 84.3929 160.58 84.7564L160.628 89.1237C160.633 89.3012 160.603 89.4779 160.538 89.6434C160.474 89.8089 160.376 89.9597 160.252 90.0869C160.128 90.2141 159.98 90.315 159.816 90.3837C159.652 90.4524 159.476 90.4874 159.298 90.4866L151.139 90.3812C150.774 90.3701 150.429 90.2181 150.174 89.9573C149.92 89.6964 149.778 89.3471 149.776 88.9832L149.729 84.6158C149.724 84.4383 149.755 84.2617 149.82 84.0963C149.885 83.931 149.982 83.7803 150.106 83.6533C150.23 83.5262 150.379 83.4253 150.543 83.3565C150.707 83.2878 150.883 83.2525 151.061 83.2529Z" fill="#FF733C"/>
<path d="M151.106 90.5067H151.131L159.298 90.6096C159.491 90.613 159.682 90.577 159.86 90.5036C160.038 90.4302 160.199 90.321 160.334 90.1829C160.607 89.8983 160.758 89.518 160.753 89.1237L160.705 84.7564C160.701 84.3557 160.543 83.9721 160.263 83.6846C159.989 83.4008 159.613 83.2374 159.218 83.2303L151.058 83.1249C150.866 83.1217 150.674 83.158 150.496 83.2313C150.318 83.3047 150.157 83.4137 150.023 83.5516C149.887 83.6919 149.78 83.8578 149.708 84.0396C149.637 84.2213 149.602 84.4155 149.606 84.6108L149.653 88.9781C149.656 89.3793 149.814 89.7637 150.096 90.0499C150.361 90.3267 150.723 90.4904 151.106 90.5067ZM159.233 83.4788C159.555 83.4893 159.86 83.6254 160.082 83.8578C160.315 84.0951 160.447 84.4138 160.449 84.7463L160.497 89.1137C160.501 89.2772 160.473 89.44 160.414 89.5925C160.355 89.745 160.266 89.8843 160.153 90.0022C160.042 90.117 159.909 90.2079 159.761 90.2692C159.614 90.3305 159.455 90.361 159.296 90.3586L151.136 90.2532C150.974 90.2502 150.813 90.2152 150.665 90.1502C150.516 90.0851 150.381 89.9913 150.269 89.8742C150.036 89.6365 149.904 89.3183 149.9 88.9857L149.852 84.6183C149.849 84.4557 149.878 84.2941 149.938 84.1429C149.998 83.9917 150.088 83.8539 150.201 83.7373C150.312 83.6222 150.446 83.5311 150.594 83.4698C150.742 83.4084 150.901 83.3782 151.061 83.3809L159.22 83.4863L159.233 83.4788Z" fill="#1D1D1B"/>
<path d="M151.061 69.6991L159.22 69.807C159.584 69.8175 159.929 69.969 160.183 70.2295C160.437 70.4901 160.579 70.8391 160.58 71.2026L160.628 75.5699C160.633 75.7474 160.603 75.9241 160.538 76.0896C160.474 76.2551 160.376 76.4059 160.252 76.5331C160.128 76.6603 159.98 76.7612 159.816 76.8299C159.652 76.8986 159.476 76.9336 159.298 76.9328L151.139 76.8274C150.774 76.8163 150.429 76.6643 150.174 76.4034C149.92 76.1426 149.778 75.7933 149.776 75.4293L149.729 71.062C149.724 70.8845 149.755 70.7078 149.82 70.5425C149.885 70.3772 149.982 70.2265 150.106 70.0994C150.23 69.9724 150.379 69.8715 150.543 69.8027C150.707 69.7339 150.883 69.6987 151.061 69.6991Z" fill="#FF733C"/>
<path d="M151.106 76.9529H151.131L159.298 77.0558C159.491 77.0593 159.682 77.0232 159.86 76.9498C160.038 76.8764 160.199 76.7672 160.334 76.6291C160.607 76.3445 160.758 75.9642 160.753 75.5699L160.705 71.2026C160.701 70.8019 160.543 70.4183 160.263 70.1308C159.989 69.847 159.613 69.6836 159.218 69.6765L151.058 69.5711C150.866 69.568 150.674 69.6042 150.496 69.6776C150.318 69.7509 150.157 69.8599 150.023 69.9978C149.887 70.1382 149.78 70.304 149.708 70.4858C149.637 70.6676 149.602 70.8617 149.606 71.057L149.653 75.4243C149.656 75.8255 149.814 76.2099 150.096 76.4961C150.361 76.7729 150.723 76.9366 151.106 76.9529ZM159.233 69.925C159.555 69.9356 159.86 70.0716 160.082 70.304C160.315 70.5414 160.447 70.86 160.449 71.1925L160.497 75.5599C160.501 75.7234 160.473 75.8862 160.414 76.0387C160.355 76.1913 160.266 76.3305 160.153 76.4484C160.042 76.5632 159.909 76.6541 159.761 76.7154C159.614 76.7768 159.455 76.8072 159.296 76.8048L151.136 76.6994C150.974 76.6964 150.813 76.6614 150.665 76.5964C150.516 76.5314 150.381 76.4376 150.269 76.3204C150.036 76.0827 149.904 75.7645 149.9 75.4319L149.852 71.0645C149.849 70.9019 149.878 70.7404 149.938 70.5892C149.998 70.438 150.088 70.3001 150.201 70.1835C150.312 70.0684 150.446 69.9773 150.594 69.916C150.742 69.8547 150.901 69.8244 151.061 69.8271L159.22 69.9325L159.233 69.925Z" fill="#1D1D1B"/>
<path d="M93.6138 68.67L144.434 69.3302C144.798 69.3406 145.143 69.4922 145.397 69.7527C145.651 70.0132 145.793 70.3622 145.793 70.7257L145.841 75.093C145.847 75.2705 145.816 75.4473 145.752 75.6127C145.687 75.7782 145.59 75.9291 145.466 76.0562C145.342 76.1834 145.194 76.2844 145.03 76.353C144.866 76.4217 144.69 76.4567 144.512 76.4559L93.6917 75.8008C93.3275 75.7898 92.9818 75.6378 92.7276 75.3769C92.4735 75.1161 92.3308 74.7668 92.3297 74.4028L92.2819 70.0355C92.2769 69.8577 92.3076 69.6808 92.3723 69.5152C92.437 69.3496 92.5344 69.1986 92.6586 69.0713C92.7828 68.9439 92.9313 68.8428 93.0954 68.7739C93.2595 68.7049 93.4358 68.6696 93.6138 68.67Z" fill="#DCE6E6"/>
<path d="M93.669 75.9238H93.6916L144.512 76.5814C144.706 76.5825 144.898 76.5445 145.077 76.4698C145.257 76.3951 145.419 76.2852 145.555 76.1466C145.69 76.0079 145.797 75.8434 145.868 75.6629C145.938 75.4823 145.972 75.2893 145.967 75.0955L145.919 70.7282C145.917 70.3311 145.76 69.9503 145.483 69.6658C145.206 69.3813 144.829 69.2151 144.431 69.2021L93.6112 68.5445C93.4172 68.5438 93.2251 68.5819 93.0462 68.6568C92.8674 68.7317 92.7054 68.8416 92.5699 68.9802C92.4344 69.1188 92.3282 69.2832 92.2575 69.4636C92.1869 69.644 92.1533 69.8368 92.1587 70.0304L92.2064 74.4002C92.2079 74.7931 92.3606 75.1704 92.6328 75.454C92.9051 75.7375 93.276 75.9058 93.669 75.9238ZM144.454 69.4556C144.778 69.4709 145.085 69.6093 145.311 69.8424C145.537 70.0756 145.665 70.3861 145.67 70.7106L145.718 75.0779C145.723 75.2392 145.695 75.3997 145.636 75.55C145.577 75.7003 145.489 75.8372 145.376 75.9527C145.264 76.0681 145.129 76.1597 144.98 76.222C144.831 76.2844 144.671 76.3161 144.509 76.3153L93.6891 75.6577H93.669C93.3425 75.6423 93.0344 75.5021 92.8085 75.2662C92.5826 75.0303 92.4561 74.7167 92.4552 74.3902L92.4074 70.0229C92.4027 69.8618 92.4305 69.7015 92.489 69.5514C92.5475 69.4013 92.6357 69.2645 92.7482 69.149C92.8607 69.0336 92.9953 68.9419 93.144 68.8795C93.2927 68.817 93.4524 68.7851 93.6137 68.7855L144.434 69.4431L144.454 69.4556Z" fill="#1D1D1B"/>
</g>
<defs>
<clipPath id="clip0_718_49401">
<rect width="179" height="160" fill="white" transform="matrix(-1 0 0 1 179 0)"/>
</clipPath>
</defs>
</svg>
