<svg xmlns="http://www.w3.org/2000/svg" viewBox="0 0 616.44 160.96"><defs><style>.cls-1{fill:#1b1b1b;}.cls-2{fill:#fff;}</style></defs><g id="Layer_2" data-name="Layer 2"><g id="Layer_1-2" data-name="Layer 1"><path class="cls-1" d="M536,0H80.48C32.81,0,0,32.8,0,80.48S32.8,161,80.48,161H536c47.67,0,80.48-32.8,80.48-80.48S583.63,0,536,0Z"/><path class="cls-2" d="M332.71,40.36a4.92,4.92,0,0,0-5.31,5.19v69.86c0,3.19,2.12,5.19,5.31,5.19h16.17a4.92,4.92,0,0,0,5.31-5.19V104.08a3.67,3.67,0,0,1,3.66-3.66h8.61c20.53,0,31.74-10.62,31.74-30.09s-11.21-30-31.74-30Zm40.12,30.8c0,5.43-3.54,8.85-9,8.85h-8.5a1.11,1.11,0,0,1-1.18-1.18V63.49a1.11,1.11,0,0,1,1.18-1.18h8.5C369.29,62.31,372.83,65.73,372.83,71.16Z"/><path class="cls-2" d="M296.48,120.6h14.75a4.92,4.92,0,0,0,5.31-5.19V45.55c0-3.19-2.12-5.19-5.31-5.19H290.34c-3.54,0-5.9,1.77-7.2,5.66L276.3,66a3.39,3.39,0,0,1-6.6,0L262.86,46c-1.3-3.89-3.66-5.66-7.2-5.66H234.77a4.92,4.92,0,0,0-5.31,5.19v69.86c0,3.19,2.12,5.19,5.31,5.19h14.75a4.92,4.92,0,0,0,5.31-5.19V77.06c0-.59.24-.83.59-.83a.76.76,0,0,1,.71.59l8.5,24.54c1.06,3.19,2.71,4.48,5.19,4.48h6.37c2.48,0,4.13-1.3,5.19-4.48l8.5-24.54a.75.75,0,0,1,.71-.59c.35,0,.59.24.59.83v38.35A4.92,4.92,0,0,0,296.48,120.6Z"/><path class="cls-2" d="M550.42,68.91c0-18.41-11.21-28.56-31.74-28.56H482.45a4.92,4.92,0,0,0-5.31,5.19V115.4c0,3.19,2.12,5.19,5.31,5.19h16.17a4.92,4.92,0,0,0,5.31-5.19V98.05a1.11,1.11,0,0,1,1.18-1.18h4.37c1.42,15.34,9,23.72,23.25,23.72h11.33a4.92,4.92,0,0,0,5.31-5.19V104.9c0-3.19-2.12-5.19-5.31-5.19h-6.73c-3.42,0-5.55-1.53-5.9-4.6C543.81,91.81,550.42,83.07,550.42,68.91Zm-33.16,9H505.11a1.11,1.11,0,0,1-1.18-1.18V63.48a1.11,1.11,0,0,1,1.18-1.18h12.15c5.19,0,7.79,3.78,7.79,7.79A7.48,7.48,0,0,1,517.26,77.88Z"/><path class="cls-2" d="M432.54,60.54h30.21a4.92,4.92,0,0,0,5.31-5.19V45.56c0-3.19-2.12-5.19-5.31-5.19h-52a4.92,4.92,0,0,0-5.31,5.19v69.86c0,3.19,2.12,5.19,5.31,5.19H464.4a4.92,4.92,0,0,0,5.31-5.19v-9.79c0-3.19-2.12-5.19-5.31-5.19H432.54a1.11,1.11,0,0,1-1.18-1.18V91a1.11,1.11,0,0,1,1.18-1.18h24.78a4.92,4.92,0,0,0,5.31-5.19v-9c0-3.19-2.12-5.19-5.31-5.19H432.54a1.11,1.11,0,0,1-1.18-1.18V61.74A1.12,1.12,0,0,1,432.54,60.54Z"/><path class="cls-2" d="M138.72,61.48c0-12.86-9.44-21.12-24.31-21.12H71.69a4.92,4.92,0,0,0-5.31,5.19v69.86c0,3.19,2.12,5.19,5.31,5.19h43.19c16.05,0,26.43-9,26.43-22.77,0-9.44-4.37-16.17-12.63-19.71C135.29,75.52,138.72,69.74,138.72,61.48ZM92.81,60.3A1.11,1.11,0,0,1,94,59.12h13.1c4.13,0,6.73,2.6,6.73,6.49s-2.6,6.49-6.73,6.49H94a1.11,1.11,0,0,1-1.18-1.18Zm15.46,41.54H94a1.11,1.11,0,0,1-1.18-1.18V89.8A1.11,1.11,0,0,1,94,88.62h14.28c4.13,0,6.73,2.6,6.73,6.61S112.4,101.84,108.27,101.84Z"/><path class="cls-2" d="M170,40.36H153a4.92,4.92,0,0,0-5.31,5.19V88.27c0,22,12.63,34,36.11,34s36.11-12,36.11-34V45.55c0-3.19-2.12-5.19-5.31-5.19h-17a4.92,4.92,0,0,0-5.31,5.19V88.38c0,6-3.3,9.91-8.5,9.91s-8.5-3.89-8.5-9.91V45.55A4.92,4.92,0,0,0,170,40.36Z"/></g></g></svg>
