<svg width="203" height="156" viewBox="0 0 203 156" fill="none" xmlns="http://www.w3.org/2000/svg">
<g clip-path="url(#clip0_718_49399)">
<path d="M92.182 0.132507C90.347 0.147655 88.547 0.635017 86.956 1.54746L2.81483 49.958C2.00749 50.4231 1.33706 51.0921 0.870927 51.8976C0.404796 52.7032 0.159386 53.6171 0.159363 54.5473V55.8563L2.28374 113.827L92.1979 62.1202L92.182 0.132507Z" fill="#7B87A3" stroke="#1B1B1B" stroke-width="0.5" stroke-miterlimit="10"/>
<path d="M92.2138 0.132507C94.0488 0.147655 95.8488 0.635017 97.4398 1.54746L200.127 60.4138C200.934 60.8789 201.605 61.5479 202.071 62.3535C202.537 63.1591 202.782 64.0729 202.782 65.0031V66.3121L202.809 121.108L92.2138 62.1202V0.132507Z" fill="#7B87A3" stroke="#1B1B1B" stroke-width="0.5" stroke-miterlimit="10"/>
<path d="M45.9556 44.314L84.5608 22.0828V48.6861L45.9556 71.32V44.314Z" fill="#DCE6E6" stroke="#1B1B1B" stroke-width="0.5" stroke-miterlimit="10"/>
<path d="M76.0367 32.9785C75.8243 33.1004 75.649 33.005 75.649 32.7559C75.6569 32.6221 75.6961 32.4921 75.7634 32.3761C75.8307 32.2602 75.9243 32.1615 76.0367 32.0882L77.476 31.2667C77.3007 30.6361 76.7218 30.4294 76.0367 30.8269C75.4608 31.1964 75.0166 31.738 74.7674 32.3743L69.8229 35.2254C69.5627 34.8757 69.0847 34.8121 68.5483 35.1248C68.1804 35.3662 67.8639 35.6777 67.6169 36.0415C67.3699 36.4053 67.1973 36.8141 67.109 37.2445L68.543 36.4178C68.7554 36.2906 68.9254 36.4178 68.9254 36.6404C68.918 36.7737 68.8797 36.9035 68.8133 37.0194C68.7469 37.1353 68.6543 37.2342 68.543 37.3081L67.1037 38.1295C67.2736 38.7655 67.8525 38.9722 68.543 38.5747C69.1385 38.1874 69.593 37.6187 69.8388 36.9531L74.7249 34.1338C74.9798 34.5206 75.4684 34.6001 76.0314 34.2768C76.7715 33.7863 77.2885 33.0248 77.4707 32.1571L76.0314 32.9838L76.0367 32.9785Z" fill="#1B1B1B" stroke="#1B1B1B" stroke-width="0.5" stroke-miterlimit="10"/>
<path d="M76.0367 40.5143C75.8243 40.6362 75.649 40.5143 75.649 40.2918C75.6569 40.158 75.6961 40.0279 75.7634 39.912C75.8307 39.796 75.9243 39.6974 76.0367 39.624L77.476 38.7973C77.3007 38.1667 76.7218 37.96 76.0367 38.3575C75.4608 38.727 75.0166 39.2686 74.7674 39.9049L69.8229 42.756C69.5627 42.4063 69.0847 42.3427 68.5483 42.6553C68.1798 42.8961 67.8629 43.2075 67.6158 43.5713C67.3687 43.9352 67.1965 44.3444 67.109 44.7751L68.543 43.9431C68.7554 43.8212 68.9254 43.9431 68.9254 44.1657C68.9193 44.2993 68.8814 44.4295 68.815 44.5456C68.7485 44.6617 68.6552 44.7604 68.543 44.8334L67.1037 45.6601C67.2736 46.2908 67.8525 46.4974 68.543 46.1053C69.1385 45.7179 69.593 45.1492 69.8388 44.4836L74.7249 41.6643C74.9798 42.0512 75.4684 42.1307 76.0314 41.8074C76.7715 41.3168 77.2885 40.5554 77.4707 39.6876L76.0314 40.5143H76.0367Z" fill="#1B1B1B" stroke="#1B1B1B" stroke-width="0.5" stroke-miterlimit="10"/>
<path d="M76.0367 48.6436C75.8243 48.7708 75.649 48.6436 75.649 48.4211C75.6573 48.2874 75.6967 48.1575 75.764 48.0416C75.8313 47.9257 75.9246 47.827 76.0367 47.7533L77.476 46.9319C77.3007 46.296 76.7218 46.0893 76.0367 46.4868C75.4608 46.8563 75.0166 47.3979 74.7674 48.0342L69.8229 50.8747C69.5627 50.5197 69.0847 50.4561 68.5483 50.7687C68.1804 51.0102 67.8639 51.3217 67.6169 51.6855C67.3699 52.0492 67.1973 52.4581 67.109 52.8885L68.543 52.0618C68.7554 51.9399 68.9254 52.0618 68.9254 52.2844C68.9184 52.4178 68.8803 52.5477 68.8138 52.6637C68.7474 52.7796 68.6546 52.8784 68.543 52.9521L67.1037 53.7735C67.2736 54.4095 67.8525 54.6161 68.543 54.2187C69.1385 53.8313 69.593 53.2626 69.8388 52.597L74.7249 49.7777C74.9798 50.1646 75.4684 50.2441 76.0314 49.9208C76.7715 49.4302 77.2885 48.6688 77.4707 47.801L76.0314 48.6277L76.0367 48.6436Z" fill="#1B1B1B" stroke="#1B1B1B" stroke-width="0.5" stroke-miterlimit="10"/>
<path d="M61.968 40.8058C61.7556 40.9277 61.5803 40.8058 61.5803 40.5832C61.5882 40.4495 61.6274 40.3194 61.6948 40.2035C61.7621 40.0875 61.8557 39.9889 61.968 39.9155L63.402 39.0941C63.232 38.4582 62.6531 38.2515 61.968 38.6489C61.3921 39.0185 60.9479 39.56 60.6987 40.1964L55.7649 43.0581C55.5046 42.703 55.0266 42.6394 54.4849 42.9521C53.7447 43.4416 53.2291 44.2038 53.051 45.0719L54.4849 44.2452C54.6974 44.118 54.8726 44.2452 54.8726 44.4677C54.8643 44.6014 54.8249 44.7313 54.7576 44.8472C54.6904 44.9631 54.597 45.0618 54.4849 45.1355L53.051 45.9569C53.2209 46.5928 53.7998 46.7995 54.4849 46.402C55.0811 46.0099 55.531 45.4324 55.7649 44.7592L60.6562 41.9399C60.9112 42.3268 61.3998 42.4063 61.9627 42.083C62.7029 41.5935 63.2185 40.8312 63.3967 39.9632L61.968 40.8058Z" fill="#1B1B1B" stroke="#1B1B1B" stroke-width="0.5" stroke-miterlimit="10"/>
<path d="M61.968 48.3469C61.7556 48.4688 61.5803 48.3469 61.5803 48.1243C61.5882 47.9906 61.6274 47.8605 61.6948 47.7446C61.7621 47.6286 61.8557 47.53 61.968 47.4566L63.402 46.6299C63.232 45.9993 62.6531 45.7926 61.968 46.1901C61.3921 46.5596 60.9479 47.1012 60.6987 47.7375L55.7649 50.5886C55.5046 50.2388 55.0266 50.1752 54.4849 50.4879C53.7447 50.9774 53.2291 51.7396 53.051 52.6077L54.4849 51.781C54.6974 51.6538 54.8726 51.781 54.8726 52.0035C54.8643 52.1372 54.8249 52.2671 54.7576 52.383C54.6904 52.4989 54.597 52.5976 54.4849 52.6713L53.051 53.4927C53.2209 54.1286 53.7998 54.3353 54.4849 53.9378C55.0811 53.5457 55.531 52.9682 55.7649 52.295L60.6562 49.4757C60.9112 49.8626 61.3998 49.9421 61.9627 49.6188C62.7029 49.1293 63.2185 48.3671 63.3967 47.499L61.9627 48.3257L61.968 48.3469Z" fill="#1B1B1B" stroke="#1B1B1B" stroke-width="0.5" stroke-miterlimit="10"/>
<path d="M61.968 56.4763C61.7556 56.6035 61.5803 56.5028 61.5803 56.2537C61.5887 56.12 61.628 55.9901 61.6953 55.8742C61.7626 55.7584 61.856 55.6597 61.968 55.586L63.402 54.7646C63.232 54.1286 62.6531 53.922 61.968 54.3194C61.3921 54.6889 60.9479 55.2305 60.6987 55.8668L55.7649 58.7233C55.5046 58.3682 55.0266 58.3046 54.4849 58.6173C53.7447 59.1068 53.2291 59.869 53.051 60.7371L54.4849 59.9103C54.6974 59.7884 54.8726 59.8838 54.8726 60.1329C54.8647 60.2667 54.8255 60.3967 54.7582 60.5127C54.6909 60.6286 54.5973 60.7273 54.4849 60.8006L53.051 61.6274C53.2209 62.258 53.7998 62.4647 54.4849 62.0672C55.0829 61.6723 55.533 61.0909 55.7649 60.4138L60.6562 57.5945C60.9112 57.9813 61.3998 58.0608 61.9627 57.7376C62.7029 57.2481 63.2185 56.4858 63.3967 55.6178L61.9627 56.4445L61.968 56.4763Z" fill="#1B1B1B" stroke="#1B1B1B" stroke-width="0.5" stroke-miterlimit="10"/>
<path d="M97.1105 19.6504L125.476 36.8524L125.296 74.5845L97.1105 58.3417V19.6504Z" fill="#FF733C" stroke="#1B1B1B" stroke-width="0.5" stroke-miterlimit="10"/>
<path d="M200.222 60.578L97.5567 1.54743C95.9419 0.617177 94.1103 0.127441 92.2457 0.127441C90.3812 0.127441 88.5495 0.617177 86.9348 1.54743L2.81483 49.9579C2.00749 50.423 1.33706 51.092 0.870927 51.8976C0.404796 52.7032 0.159386 53.617 0.159363 54.5473V55.8562L73.8699 98.2095L110.68 77.0911L147.442 98.2889L202.867 66.4922V65.1833C202.871 64.2514 202.629 63.335 202.164 62.5264C201.7 61.7179 201.03 61.0458 200.222 60.578ZM145.026 43.4237L102.538 67.8966L95.5491 71.9242L95.103 72.1838C94.2044 72.6982 93.1849 72.9648 92.149 72.9564C91.1131 72.948 90.098 72.6649 89.2079 72.1361L88.7671 71.8712L81.9744 67.833L39.5825 42.4698C39.3347 42.3242 39.1293 42.1166 38.9865 41.8675C38.8438 41.6184 38.7688 41.3365 38.7688 41.0495C38.7688 40.7626 38.8438 40.4807 38.9865 40.2316C39.1293 39.9825 39.3347 39.7749 39.5825 39.6293L89.5371 10.6572C90.3316 10.1967 91.235 9.9563 92.1537 9.96095C93.0725 9.96561 93.9734 10.2151 94.7631 10.6837L145.026 40.5832C145.274 40.7288 145.479 40.9364 145.622 41.1855C145.764 41.4346 145.84 41.7165 145.84 42.0035C145.84 42.2904 145.764 42.5723 145.622 42.8214C145.479 43.0705 145.274 43.2781 145.026 43.4237Z" fill="#FF8255"/>
<path d="M73.8699 98.2307L0.159363 55.8774V111.887C0.161248 112.816 0.407541 113.727 0.873579 114.531C1.33962 115.335 2.00905 116.002 2.81483 116.466L7.54157 119.206C7.70296 119.299 7.88603 119.348 8.07239 119.348C8.25875 119.348 8.44184 119.299 8.60328 119.206C8.76472 119.113 8.89883 118.98 8.99214 118.819C9.08544 118.658 9.13466 118.475 9.13485 118.289V77.8013L64.1562 109.699V150.504C64.1566 150.975 64.2828 151.438 64.5217 151.844C64.7607 152.25 65.1038 152.585 65.5158 152.815L68.6174 154.543C70.2215 155.439 72.0313 155.905 73.8699 155.894V98.2307Z" fill="#7B87A3" stroke="#1B1B1B" stroke-width="0.5" stroke-miterlimit="10"/>
<path d="M152.69 154.437L200.148 127.213C200.956 126.748 201.627 126.078 202.093 125.271C202.559 124.465 202.804 123.55 202.804 122.619V66.4445L147.384 98.2412V155.846C149.246 155.849 151.075 155.362 152.69 154.437Z" fill="#7B87A3" stroke="#1B1B1B" stroke-width="0.5" stroke-miterlimit="10"/>
<path d="M156.609 108.586V129.784L193.398 108.586V87.3879L156.609 108.586Z" fill="#1B1B1B" stroke="#1B1B1B" stroke-miterlimit="10"/>
<path d="M73.8698 98.1194V155.756C75.7028 155.744 77.5013 155.258 79.0905 154.347L110.68 136.222L110.574 77.2183L73.8698 98.1194Z" fill="#7B879B" stroke="#1B1B1B" stroke-width="0.5" stroke-miterlimit="10"/>
<path d="M60.1729 144.776L11.3123 116.45C10.6499 116.067 10.1001 115.516 9.71795 114.854C9.33579 114.192 9.13471 113.441 9.13483 112.677V77.1123L64.1561 109.01V142.486C64.1552 142.951 64.0318 143.407 63.7984 143.809C63.5649 144.211 63.2296 144.545 62.8261 144.777C62.4226 145.009 61.965 145.131 61.4993 145.131C61.0337 145.13 60.5762 145.008 60.1729 144.776Z" fill="#DCE6E6" stroke="#1B1B1B" stroke-width="0.5" stroke-miterlimit="10"/>
<path d="M9.1189 81.4049L64.1562 113.302" stroke="#1B1B1B" stroke-width="0.5" stroke-miterlimit="10"/>
<path d="M9.1189 85.6285L64.1562 117.526" stroke="#1B1B1B" stroke-width="0.5" stroke-miterlimit="10"/>
<path d="M9.1189 89.8522L64.1562 121.75" stroke="#1B1B1B" stroke-width="0.5" stroke-miterlimit="10"/>
<path d="M9.1189 94.0759L64.1562 125.968" stroke="#1B1B1B" stroke-width="0.5" stroke-miterlimit="10"/>
<path d="M9.1189 98.2943L64.1562 130.192" stroke="#1B1B1B" stroke-width="0.5" stroke-miterlimit="10"/>
<path d="M9.1189 102.518L64.1562 134.415" stroke="#1B1B1B" stroke-width="0.5" stroke-miterlimit="10"/>
<path d="M9.1189 106.742L64.1562 138.639" stroke="#1B1B1B" stroke-width="0.5" stroke-miterlimit="10"/>
<path d="M9.1189 110.965L64.1562 142.857" stroke="#1B1B1B" stroke-width="0.5" stroke-miterlimit="10"/>
<path d="M147.389 98.2519L110.68 77.1071L110.584 77.1601L110.659 136.339L142.126 154.468C143.721 155.385 145.527 155.873 147.368 155.883L147.389 98.2519Z" fill="#7B87A3" stroke="#1B1B1B" stroke-width="0.5" stroke-miterlimit="10"/>
<path d="M119.857 141.601V99.1528L138.238 109.773V152.169L119.857 141.601Z" fill="#DCE6E6" stroke="#1B1B1B" stroke-width="0.5" stroke-miterlimit="10"/>
<path d="M122.789 122.121V104.426L134.967 111.564V129.201L122.789 122.121Z" fill="#1B1B1B" stroke="#1B1B1B" stroke-width="0.5" stroke-miterlimit="10"/>
<path d="M202.809 68.8611V69.391" stroke="#1B1B1B" stroke-width="0.5" stroke-miterlimit="10"/>
<path d="M202.809 70.3555V79.5395" stroke="#1B1B1B" stroke-width="0.5" stroke-miterlimit="10" stroke-dasharray="9.12 1.82 1.82 9.12"/>
<path d="M202.809 81.9561V93.069" stroke="#1B1B1B" stroke-width="0.5" stroke-miterlimit="10" stroke-dasharray="1.82 1.82 9.12 1.82 1.82 9.12"/>
<path d="M202.809 95.4855V96.0155" stroke="#1B1B1B" stroke-width="0.5" stroke-miterlimit="10"/>
<path d="M200.222 60.578L97.5567 1.54743C95.9419 0.617177 94.1103 0.127441 92.2457 0.127441C90.3812 0.127441 88.5495 0.617177 86.9348 1.54743L2.81483 49.9579C2.00749 50.423 1.33706 51.092 0.870927 51.8976C0.404796 52.7032 0.159386 53.617 0.159363 54.5473V55.8562L73.8699 98.2095L110.68 77.0911L147.442 98.2889L202.867 66.4922V65.1833C202.871 64.2514 202.629 63.335 202.164 62.5264C201.7 61.7179 201.03 61.0458 200.222 60.578V60.578ZM145.026 43.4237L102.538 67.8966L95.5491 71.9242L95.103 72.1838C94.2044 72.6982 93.1849 72.9648 92.149 72.9564C91.1131 72.948 90.098 72.6649 89.2079 72.1361L88.7671 71.8712L81.9744 67.833L39.5825 42.4698C39.3347 42.3242 39.1293 42.1166 38.9865 41.8675C38.8438 41.6184 38.7688 41.3365 38.7688 41.0495C38.7688 40.7626 38.8438 40.4807 38.9865 40.2316C39.1293 39.9825 39.3347 39.7749 39.5825 39.6293L89.5371 10.6572C90.3316 10.1967 91.235 9.9563 92.1537 9.96095C93.0725 9.96561 93.9734 10.2151 94.7631 10.6837L145.026 40.5832C145.274 40.7288 145.479 40.9364 145.622 41.1855C145.764 41.4346 145.84 41.7165 145.84 42.0035C145.84 42.2904 145.764 42.5723 145.622 42.8214C145.479 43.0705 145.274 43.2781 145.026 43.4237Z" stroke="#1B1B1B" stroke-width="0.5" stroke-miterlimit="10"/>
<path d="M202.841 65.1833C202.841 64.2523 202.594 63.3378 202.124 62.5336L147.421 93.917L110.659 72.7191L73.822 93.8428L0.844417 51.8976C0.378238 52.7032 0.132792 53.617 0.132751 54.5473V55.8563L73.822 98.2095L110.632 77.0912L147.394 98.289L202.819 66.4923L202.841 65.1833Z" fill="#FF8F63" stroke="#1B1B1B" stroke-width="0.5" stroke-miterlimit="10"/>
<path d="M110.696 72.5972V77.0806" stroke="#1B1B1B" stroke-width="0.5" stroke-miterlimit="10"/>
<path d="M73.8698 93.7738V98.2571" stroke="#1B1B1B" stroke-width="0.5" stroke-miterlimit="10"/>
<path d="M147.464 93.7738V98.2571" stroke="#1B1B1B" stroke-width="0.5" stroke-miterlimit="10"/>
<path d="M73.8698 98.1194V155.756C75.7028 155.744 77.5013 155.258 79.0905 154.347L110.68 136.222L110.574 77.2183L73.8698 98.1194Z" stroke="#1B1B1B" stroke-width="0.5" stroke-miterlimit="10"/>
<path d="M152.69 154.437L200.148 127.213C200.956 126.748 201.627 126.078 202.093 125.271C202.559 124.465 202.804 123.55 202.804 122.619V66.4445L147.384 98.2412V155.846C149.246 155.849 151.075 155.362 152.69 154.437V154.437Z" stroke="#1B1B1B" stroke-width="0.5" stroke-miterlimit="10"/>
</g>
<defs>
<clipPath id="clip0_718_49399">
<rect width="203" height="156" fill="white"/>
</clipPath>
</defs>
</svg>
