<svg width="160" height="167" viewBox="0 0 160 167" fill="none" xmlns="http://www.w3.org/2000/svg">
<g clip-path="url(#clip0_718_49400)">
<path d="M0.114105 109.898C0.113785 110.986 0.399246 112.055 0.941803 112.997C1.48438 113.939 2.26491 114.721 3.2049 115.265L90.7926 166.053C91.7313 166.595 92.7956 166.88 93.8789 166.88C94.9622 166.88 96.0265 166.595 96.9651 166.053L154.065 133.004C155.007 132.465 155.791 131.687 156.338 130.748C156.886 129.809 157.177 128.743 157.183 127.656L96.9651 162.498C96.0265 163.04 94.9622 163.325 93.8789 163.325C92.7956 163.325 91.7313 163.04 90.7926 162.498L0.114105 109.898Z" fill="#F3F3F3" stroke="#1B1B1B" stroke-width="0.5" stroke-miterlimit="10"/>
<path d="M157.183 127.546L62.2222 72.6035L0.703033 108.201C0.522934 108.305 0.373428 108.455 0.269501 108.636C0.165558 108.817 0.11084 109.022 0.11084 109.23C0.11084 109.439 0.165558 109.644 0.269501 109.824C0.373428 110.005 0.522934 110.155 0.703033 110.26L92.2399 163.221C92.7376 163.511 93.3031 163.664 93.8789 163.664C94.4546 163.664 95.0201 163.511 95.5179 163.221L157.183 127.546Z" fill="white" stroke="#1B1B1B" stroke-width="0.5" stroke-miterlimit="10"/>
<path d="M157.183 54.2879V127.546L62.2222 72.6035V2.96032C62.2216 2.61249 62.3124 2.27064 62.4855 1.96914C62.6585 1.66764 62.9077 1.41711 63.208 1.24275C63.5083 1.06838 63.8492 0.976325 64.1962 0.975832C64.5433 0.97534 64.8844 1.06643 65.1852 1.23994L157.183 54.2879Z" fill="white" stroke="#1B1B1B" stroke-width="0.5" stroke-miterlimit="10"/>
<path d="M69.8282 0.8373L158.096 51.7028C158.64 52.0165 159.092 52.4685 159.406 53.0132C159.721 53.5578 159.886 54.1758 159.886 54.8049V122.851C159.885 123.803 159.636 124.737 159.161 125.561C158.687 126.385 158.005 127.069 157.183 127.546V56.356C157.183 55.7276 157.017 55.1103 156.703 54.5665C156.389 54.0226 155.937 53.5714 155.393 53.2584L64.4182 0.841875C65.2404 0.365753 66.173 0.114697 67.1226 0.113894C68.0722 0.11309 69.0052 0.362569 69.8282 0.8373Z" fill="#F3F3F3" stroke="#1B1B1B" stroke-width="0.5" stroke-miterlimit="10"/>
<path d="M153.859 58.4059V118.994C153.86 119.277 153.785 119.555 153.644 119.8C153.503 120.045 153.301 120.248 153.056 120.39C152.812 120.531 152.535 120.605 152.253 120.605C151.97 120.606 151.693 120.531 151.449 120.39L67.4907 71.8349C66.8403 71.4579 66.3001 70.9163 65.9243 70.2643C65.5485 69.6122 65.3503 68.8726 65.3495 68.1196V7.72339C65.3534 7.44256 65.4304 7.16762 65.5731 6.92585C65.7157 6.68407 65.9189 6.48388 66.1625 6.34514C66.4062 6.20639 66.6818 6.13391 66.9621 6.1349C67.2423 6.13588 67.5174 6.21029 67.7601 6.35075L151.714 54.686C152.366 55.062 152.908 55.6039 153.285 56.2571C153.662 56.9102 153.86 57.6514 153.859 58.4059Z" fill="white" stroke="#1B1B1B" stroke-width="0.5" stroke-miterlimit="10"/>
<path d="M145.779 127.697L109.607 148.63L26.1143 100.075L62.5236 78.9772L145.779 127.697Z" fill="#5A698C" stroke="#1B1B1B" stroke-width="0.5" stroke-miterlimit="10"/>
<path d="M56.4651 82.4637L139.757 131.202" stroke="#1B1B1B" stroke-width="0.5" stroke-miterlimit="10"/>
<path d="M57.9216 90.2923L133.758 134.674" stroke="#1B1B1B" stroke-width="0.5" stroke-miterlimit="10"/>
<path d="M44.3942 89.3589L127.736 138.129" stroke="#1B1B1B" stroke-width="0.5" stroke-miterlimit="10"/>
<path d="M38.4135 92.8362L121.673 141.56" stroke="#1B1B1B" stroke-width="0.5" stroke-miterlimit="10"/>
<path d="M32.4146 96.3044L115.629 145.001" stroke="#1B1B1B" stroke-width="0.5" stroke-miterlimit="10"/>
<path d="M108.164 140.636L102.074 144.159" stroke="#1B1B1B" stroke-width="0.5" stroke-miterlimit="10"/>
<path d="M130.672 118.797L94.4952 139.726" stroke="#1B1B1B" stroke-width="0.5" stroke-miterlimit="10"/>
<path d="M123.093 114.364L86.9211 135.292" stroke="#1B1B1B" stroke-width="0.5" stroke-miterlimit="10"/>
<path d="M115.519 109.93L85.3872 127.303" stroke="#1B1B1B" stroke-width="0.5" stroke-miterlimit="10"/>
<path d="M107.94 105.497L77.8086 122.87" stroke="#1B1B1B" stroke-width="0.5" stroke-miterlimit="10"/>
<path d="M100.366 101.063L70.2345 118.436" stroke="#1B1B1B" stroke-width="0.5" stroke-miterlimit="10"/>
<path d="M92.7877 96.6293L62.6559 114.002" stroke="#1B1B1B" stroke-width="0.5" stroke-miterlimit="10"/>
<path d="M85.2137 92.1957L49.0373 113.124" stroke="#1B1B1B" stroke-width="0.5" stroke-miterlimit="10"/>
<path d="M77.6351 87.762L41.4632 108.69" stroke="#1B1B1B" stroke-width="0.5" stroke-miterlimit="10"/>
<path d="M39.9795 100.734L33.8847 104.257" stroke="#1B1B1B" stroke-width="0.5" stroke-miterlimit="10"/>
<path d="M138.246 123.231L120.158 133.695" stroke="#1B1B1B" stroke-width="0.5" stroke-miterlimit="10"/>
<path d="M70.061 83.3284L45.9738 97.2607" stroke="#1B1B1B" stroke-width="0.5" stroke-miterlimit="10"/>
<path d="M67.8149 6.29585L151.782 54.686C152.435 55.062 152.977 55.6039 153.354 56.2571C153.73 56.9102 153.929 57.6514 153.928 58.4059V68.6L65.4043 17.3868V7.69137C65.4042 7.4086 65.4783 7.13077 65.6193 6.88583C65.7603 6.64089 65.9632 6.43748 66.2075 6.29604C66.4518 6.15459 66.729 6.08011 67.0112 6.08008C67.2933 6.08005 67.5705 6.15447 67.8149 6.29585Z" fill="#FF733C" stroke="#1B1B1B" stroke-width="0.5" stroke-miterlimit="10"/>
<path d="M67.8149 6.29585L151.782 54.686C152.435 55.062 152.977 55.6039 153.354 56.2571C153.73 56.9102 153.929 57.6514 153.928 58.4059V68.6L65.4043 17.3868V7.69137C65.4042 7.4086 65.4784 7.13077 65.6193 6.88583C65.7603 6.64089 65.9632 6.43748 66.2075 6.29604C66.4518 6.15459 66.729 6.08011 67.0112 6.08008C67.2933 6.08005 67.5705 6.15447 67.8149 6.29585V6.29585Z" stroke="#1B1B1B" stroke-width="0.5" stroke-miterlimit="10"/>
<path d="M123.477 55.8756L123.55 80.8485L145.094 93.399L145.025 68.4215L123.477 55.8756Z" fill="#5A698C" stroke="#231F20" stroke-width="0.5" stroke-miterlimit="10"/>
<path d="M138.584 85.5109C138.151 85.2227 137.796 84.8332 137.547 84.3762C136.858 83.2278 136.178 82.0564 135.548 80.8897C135.055 79.9975 135.055 79.0595 135.548 78.7392C135.89 78.4922 136.264 78.2817 136.625 78.0895L136.748 78.0346C135.767 75.4331 134.368 73.0097 132.607 70.8603L131.749 71.3636C131.529 71.5311 131.253 71.608 130.978 71.5786C130.795 71.5598 130.619 71.5004 130.462 71.4048C130.084 71.1734 129.77 70.8509 129.549 70.4668C128.821 69.2467 128.115 68.0265 127.43 66.8064C126.946 65.9279 126.928 65.0037 127.389 64.6559C127.819 64.3245 128.277 64.032 128.759 63.782C128.961 63.7025 129.179 63.669 129.396 63.684C129.613 63.6991 129.824 63.7622 130.014 63.869L130.11 63.8918L130.681 64.2167C130.946 64.4226 131.215 64.6193 131.48 64.8344C132.501 65.7273 133.436 66.7138 134.274 67.781C135.667 69.4857 136.901 71.3144 137.963 73.2441C139.269 75.5458 140.307 77.9897 141.058 80.5282C141.317 81.3786 141.47 82.2576 141.515 83.1454C141.569 83.9736 141.327 84.6187 140.848 84.9207C140.454 85.1816 140.042 85.4141 139.615 85.6162C139.448 85.6818 139.268 85.7069 139.09 85.6894C138.911 85.6719 138.739 85.6123 138.588 85.5155" fill="black"/>
<path d="M95.1161 64.7932L95.043 39.6739L73.3709 27.0502L73.444 52.1741L95.1161 64.7932Z" fill="#5A698C" stroke="#231F20" stroke-width="0.5" stroke-miterlimit="10"/>
<path d="M84.2139 45.2651C85.305 45.9011 86.1953 45.3841 86.1907 44.1579C86.1483 43.471 85.9477 42.8034 85.6048 42.2072C85.2618 41.611 84.7857 41.1026 84.2139 40.7217C83.1547 40.104 82.2644 40.621 82.269 41.8838C82.3146 42.5587 82.5136 43.2142 82.8507 43.8002C83.1877 44.3863 83.654 44.8873 84.2139 45.2651ZM84.2139 37.798C86.7249 39.2575 88.7793 42.9408 88.7793 45.9652C88.7793 48.532 85.4009 52.7918 84.2504 54.6586C83.0862 51.4557 79.685 43.2565 79.685 40.6897C79.685 37.6653 81.6846 36.3475 84.1956 37.8117" fill="black"/>
<path d="M72.9144 133.723L61.8204 140.073L40.0479 127.441L51.1419 121.085L72.9144 133.723Z" fill="white" stroke="#1B1B1B" stroke-width="0.5" stroke-miterlimit="10"/>
<path d="M51.1282 121.085L72.9008 133.723L71.5357 134.5L51.1282 122.659L41.3947 128.232L40.0297 127.441L51.1282 121.085Z" fill="#5A698C" stroke="#1B1B1B" stroke-width="0.5" stroke-miterlimit="10"/>
<path d="M94.1118 76.9365C94.9062 77.3941 95.5545 77.0189 95.5545 76.0992C95.5266 75.5979 95.3815 75.1102 95.1308 74.6754C94.8802 74.2407 94.5312 73.8711 94.1118 73.5964L88.7474 70.4988C89.3866 68.1333 91.5551 67.3555 94.1118 68.8379C96.084 70.0047 97.8646 72.2421 98.8233 74.6442L117.309 85.3462C118.281 84.0285 120.048 83.7906 122.08 84.9573C124.641 86.4398 126.809 89.725 127.444 92.8271L122.08 89.7158C121.285 89.2583 120.637 89.6334 120.637 90.5531C120.665 91.0544 120.81 91.5421 121.061 91.9769C121.311 92.4116 121.66 92.7812 122.08 93.0559L127.444 96.1535C126.809 98.519 124.641 99.2968 122.08 97.8144C120.011 96.6156 118.199 94.2409 117.24 91.7336L98.9785 81.1597C98.0335 82.6055 96.2027 82.9075 94.1026 81.695C91.546 80.2126 89.3774 76.9319 88.7383 73.8252L94.1026 76.9365H94.1118Z" fill="#1B1B1B" stroke="#1B1B1B" stroke-width="0.5" stroke-miterlimit="10"/>
<path d="M69.1256 15.7164C68.0867 13.9132 68.0872 11.9638 69.1266 11.3624C70.166 10.761 71.8507 11.7353 72.8896 13.5385C73.9284 15.3418 73.9279 17.2911 72.8885 17.8926C71.8491 18.494 70.1644 17.5197 69.1256 15.7164Z" fill="#DCE6E6"/>
<path d="M69.1256 15.7164C68.0867 13.9132 68.0872 11.9638 69.1266 11.3624C70.166 10.761 71.8507 11.7353 72.8896 13.5385C73.9284 15.3418 73.9279 17.2911 72.8885 17.8926C71.8491 18.494 70.1644 17.5197 69.1256 15.7164Z" stroke="#1B1B1B" stroke-width="0.5" stroke-miterlimit="10"/>
<path d="M153.859 58.4059V118.994C153.86 119.277 153.785 119.555 153.644 119.8C153.503 120.045 153.301 120.248 153.056 120.39C152.812 120.531 152.535 120.605 152.253 120.606C151.97 120.606 151.693 120.531 151.449 120.39L67.4907 71.8349C66.8403 71.4579 66.3001 70.9163 65.9243 70.2643C65.5485 69.6122 65.3503 68.8726 65.3495 68.1196V7.72339C65.3534 7.44256 65.4304 7.16762 65.5731 6.92585C65.7157 6.68407 65.9189 6.48388 66.1625 6.34514C66.4062 6.20639 66.6818 6.13391 66.9621 6.1349C67.2423 6.13588 67.5174 6.21029 67.7601 6.35075L151.714 54.686C152.366 55.062 152.908 55.6039 153.285 56.2571C153.662 56.9102 153.86 57.6514 153.859 58.4059V58.4059Z" stroke="#1B1B1B" stroke-width="0.5" stroke-miterlimit="10"/>
<path d="M120.112 78.9772L120.039 53.8533L98.3667 41.2341L98.4397 66.3535L120.112 78.9772Z" fill="#5A698C" stroke="#231F20" stroke-width="0.5" stroke-miterlimit="10"/>
<path d="M115.551 56.7358C115.754 56.8711 115.9 57.0762 115.962 57.3123C115.996 57.4241 115.996 57.5436 115.962 57.6555L111.438 69.6981C111.426 69.7327 111.407 69.7643 111.381 69.7903C111.356 69.8162 111.324 69.836 111.29 69.8479C111.256 69.8599 111.219 69.8637 111.183 69.8591C111.146 69.8546 111.112 69.8418 111.081 69.8216L111.027 69.7942C110.861 69.6826 110.734 69.5229 110.661 69.3366L108.26 63.7454L104.831 65.7037C104.782 65.7273 104.726 65.7368 104.672 65.7311C104.617 65.7255 104.565 65.7049 104.521 65.6717C104.392 65.591 104.285 65.4793 104.21 65.3468L102.841 63.0042C102.672 62.7068 102.672 62.3865 102.841 62.2904L106.251 60.2909L102.599 55.4135C102.398 55.139 102.339 54.7912 102.471 54.6357C102.498 54.6054 102.533 54.5827 102.571 54.5699C102.609 54.5571 102.65 54.5545 102.69 54.5624L115.355 56.6626C115.408 56.6727 115.458 56.6912 115.505 56.7175" fill="black"/>
</g>
<defs>
<clipPath id="clip0_718_49400">
<rect width="160" height="167" fill="white" transform="matrix(-1 0 0 1 160 0)"/>
</clipPath>
</defs>
</svg>
