<svg width="128" height="25" viewBox="0 0 128 25" fill="none" xmlns="http://www.w3.org/2000/svg">
<g clip-path="url(#clip0_211_17030)">
<path d="M0 0.506348H23.9872V24.4936H0V0.506348ZM25.9861 0.506348H49.9733V24.4936H25.9861V0.506348ZM51.9723 0.506348H75.9595V24.4936H51.9723V0.506348ZM77.9584 0.506348H101.946V24.4936H77.9584V0.506348ZM103.945 0.506348H127.932V24.4936H103.945V0.506348Z" fill="#00B67A"/>
<path d="M11.9936 16.6727L15.6417 15.7482L17.1658 20.4457L11.9936 16.6727ZM20.3891 10.601H13.9676L11.9936 4.5542L10.0197 10.601H3.59808L8.79531 14.349L6.82136 20.3958L12.0186 16.6478L15.2169 14.349L20.3891 10.601ZM37.9797 16.6727L41.6278 15.7482L43.152 20.4457L37.9797 16.6727ZM46.3753 10.601H39.9537L37.9797 4.5542L36.0058 10.601H29.5842L34.7814 14.349L32.8075 20.3958L38.0047 16.6478L41.203 14.349L46.3753 10.601ZM63.9659 16.6727L67.6139 15.7482L69.1381 20.4457L63.9659 16.6727ZM72.3614 10.601H65.9398L63.9659 4.5542L61.9919 10.601H55.5704L60.7676 14.349L58.7936 20.3958L63.9909 16.6478L67.1892 14.349L72.3614 10.601ZM89.952 16.6727L93.6001 15.7482L95.1243 20.4457L89.952 16.6727ZM98.3475 10.601H91.926L89.952 4.5542L87.9781 10.601H81.5565L86.7537 14.349L84.7798 20.3958L89.977 16.6478L93.1753 14.349L98.3475 10.601ZM115.938 16.6727L119.586 15.7482L121.11 20.4457L115.938 16.6727ZM124.334 10.601H117.912L115.938 4.5542L113.964 10.601H107.543L112.74 14.349L110.766 20.3958L115.963 16.6478L119.161 14.349L124.334 10.601Z" fill="white"/>
</g>
<defs>
<clipPath id="clip0_211_17030">
<rect width="127.932" height="24" fill="white" transform="translate(0 0.5)"/>
</clipPath>
</defs>
</svg>
