<svg width="97" height="25" viewBox="0 0 97 25" fill="none" xmlns="http://www.w3.org/2000/svg">
<path d="M26.0912 9.23035H35.7483V11.0282H31.9461V21.1628H29.8619V11.0282H26.0753L26.0912 9.23035ZM35.3348 12.5237H37.1169V14.1942H37.1485C37.2123 13.9556 37.3239 13.7328 37.4826 13.5101C37.6419 13.2873 37.8328 13.0805 38.0714 12.9055C38.294 12.7146 38.5487 12.5714 38.8351 12.46C39.1054 12.3487 39.3918 12.285 39.6781 12.285C39.9012 12.285 40.06 12.301 40.1399 12.301C40.2192 12.3168 40.3147 12.3328 40.3941 12.3328V14.1624C40.267 14.1306 40.1238 14.1146 39.9806 14.0988C39.8374 14.0828 39.7103 14.0669 39.5671 14.0669C39.2486 14.0669 38.9466 14.1306 38.6603 14.2578C38.3739 14.3851 38.1347 14.5761 37.9122 14.8147C37.7052 15.0693 37.5303 15.3715 37.4032 15.7375C37.2756 16.1034 37.2123 16.533 37.2123 17.0103V21.115H35.3031L35.3348 12.5237ZM49.1606 21.1628H47.2675V19.9536H47.2353C46.9967 20.399 46.647 20.7331 46.1853 21.0036C45.7241 21.2741 45.2468 21.4014 44.7695 21.4014C43.6396 21.4014 42.8127 21.1309 42.3032 20.5582C41.7943 20.0013 41.5395 19.1422 41.5395 18.0126V12.5237H43.4487V17.8217C43.4487 18.5854 43.5919 19.1263 43.8943 19.4286C44.1807 19.7468 44.5947 19.9058 45.1192 19.9058C45.5171 19.9058 45.8512 19.8422 46.122 19.7149C46.3923 19.5877 46.6149 19.4286 46.7741 19.2217C46.949 19.0149 47.0605 18.7603 47.1399 18.474C47.2198 18.1876 47.2514 17.8694 47.2514 17.5353V12.5237H49.1606V21.1628ZM52.3906 18.3944C52.4538 18.9513 52.6608 19.3331 53.0266 19.5717C53.3923 19.7945 53.838 19.9058 54.3474 19.9058C54.5223 19.9058 54.7293 19.89 54.9518 19.8581C55.1744 19.8263 55.3975 19.7786 55.5884 19.699C55.7948 19.6195 55.9541 19.5081 56.0812 19.349C56.2089 19.1899 56.2721 18.999 56.2566 18.7604C56.2405 18.5217 56.1611 18.3149 55.9858 18.1558C55.8109 17.9967 55.6039 17.8853 55.3497 17.7739C55.095 17.6785 54.7925 17.5989 54.4584 17.5353C54.1243 17.4716 53.7902 17.3921 53.4406 17.3126C53.0904 17.233 52.7402 17.1375 52.4061 17.0262C52.072 16.9148 51.7856 16.7716 51.5154 16.5648C51.2606 16.3739 51.0381 16.1352 50.8949 15.8329C50.7356 15.5306 50.6562 15.1806 50.6562 14.7352C50.6562 14.2578 50.7673 13.876 51.0059 13.5578C51.229 13.2396 51.5309 12.985 51.8811 12.7941C52.2313 12.6032 52.6287 12.46 53.0582 12.3805C53.4878 12.301 53.9018 12.2691 54.2836 12.2691C54.7293 12.2691 55.1588 12.3168 55.5562 12.4123C55.9541 12.5077 56.3359 12.6509 56.654 12.8737C56.9881 13.0805 57.2589 13.3669 57.4653 13.701C57.6884 14.0351 57.8155 14.4487 57.8793 14.9261H55.8903C55.7948 14.4647 55.5884 14.1624 55.2698 14.0033C54.9357 13.8442 54.57 13.7646 54.1404 13.7646C54.0133 13.7646 53.838 13.7805 53.6631 13.7965C53.4722 13.8283 53.313 13.8601 53.1381 13.9237C52.9789 13.9874 52.8357 14.0828 52.7241 14.1942C52.6131 14.3056 52.5493 14.4647 52.5493 14.6556C52.5493 14.8942 52.6287 15.0693 52.7879 15.2125C52.9472 15.3556 53.1542 15.467 53.4245 15.5784C53.6792 15.6738 53.9812 15.7534 54.3153 15.817C54.6494 15.8807 54.9995 15.9602 55.3497 16.0398C55.6994 16.1193 56.0335 16.2148 56.3676 16.3261C56.7017 16.4375 57.0041 16.5807 57.2589 16.7875C57.5131 16.9785 57.7362 17.2171 57.8949 17.5035C58.0542 17.7899 58.1335 18.1558 58.1335 18.5694C58.1335 19.0785 58.0225 19.5081 57.7839 19.874C57.5453 20.2241 57.2428 20.5264 56.877 20.7491C56.5108 20.9718 56.0812 21.1309 55.6361 21.2423C55.1744 21.3377 54.7293 21.4014 54.2836 21.4014C53.7425 21.4014 53.2336 21.3377 52.7724 21.2105C52.3107 21.0832 51.8972 20.8923 51.5631 20.6536C51.229 20.399 50.9582 20.0968 50.7673 19.7149C50.5763 19.349 50.4653 18.9035 50.4492 18.3785H52.3745V18.3944H52.3906ZM58.6746 12.5237H60.1226V9.91447H62.0317V12.5077H63.75V13.9237H62.0317V18.5376C62.0317 18.7444 62.0478 18.9035 62.0634 19.0626C62.0795 19.2058 62.1272 19.3331 62.1749 19.4286C62.2387 19.524 62.3342 19.6036 62.4452 19.6513C62.5728 19.699 62.7316 19.7308 62.9547 19.7308C63.0818 19.7308 63.225 19.7308 63.3521 19.7149C63.4797 19.699 63.6229 19.6831 63.75 19.6513V21.1309C63.543 21.1628 63.3365 21.1786 63.1295 21.1946C62.9225 21.2264 62.7316 21.2264 62.509 21.2264C62.0001 21.2264 61.6022 21.1786 61.2997 21.0832C60.9978 20.9877 60.7592 20.8445 60.5838 20.6695C60.409 20.4786 60.2974 20.2559 60.2341 19.9854C60.1703 19.7149 60.1381 19.3808 60.1226 19.0308V13.9397H58.6746V12.4919V12.5237ZM65.0864 12.5237H66.884V13.701H66.9161C67.1864 13.1919 67.5527 12.8418 68.03 12.6191C68.5073 12.3964 69.0162 12.285 69.5889 12.285C70.2732 12.285 70.8615 12.3964 71.371 12.6509C71.8799 12.8896 72.2934 13.2078 72.6275 13.6374C72.9616 14.051 73.2163 14.5442 73.3756 15.1011C73.5343 15.6579 73.6298 16.2625 73.6298 16.883C73.6298 17.4716 73.5504 18.0285 73.4072 18.5694C73.248 19.1104 73.0254 19.6036 72.7229 20.0172C72.421 20.4309 72.0392 20.765 71.5619 21.0196C71.0846 21.2741 70.5435 21.4014 69.907 21.4014C69.6367 21.4014 69.3503 21.3695 69.0795 21.3218C68.8092 21.2741 68.5389 21.1946 68.2842 21.0832C68.03 20.9718 67.7908 20.8286 67.5843 20.6536C67.3613 20.4786 67.1864 20.2718 67.0432 20.049H67.0116V24.3606H65.1025V12.5237H65.0864ZM71.7528 16.8512C71.7528 16.4693 71.7051 16.0875 71.5935 15.7215C71.4981 15.3556 71.3388 15.0374 71.1323 14.751C70.9253 14.4647 70.6706 14.242 70.3842 14.0669C70.0823 13.8919 69.7321 13.8123 69.3503 13.8123C68.5545 13.8123 67.9501 14.0828 67.5366 14.6397C67.1387 15.1965 66.9317 15.9443 66.9317 16.8671C66.9317 17.3126 66.9794 17.7103 67.091 18.0762C67.2025 18.4421 67.3457 18.7604 67.5683 19.0308C67.7753 19.3013 68.03 19.5081 68.3319 19.6672C68.6344 19.8263 68.9685 19.9058 69.3664 19.9058C69.8115 19.9058 70.1617 19.8104 70.4641 19.6354C70.7661 19.4604 71.0047 19.2217 71.2117 18.9513C71.4026 18.6649 71.5458 18.3467 71.6252 17.9808C71.7051 17.5989 71.7528 17.233 71.7528 16.8512ZM75.1094 9.23035H77.0191V11.0282H75.1094V9.23035ZM75.1094 12.5237H77.0191V21.1628H75.1094V12.5237ZM78.7212 9.23035H80.6303V21.1628H78.7212V9.23035ZM86.4532 21.4014C85.7695 21.4014 85.149 21.29 84.6079 21.0514C84.0668 20.8127 83.6217 20.5104 83.2399 20.1127C82.8736 19.7149 82.5872 19.2217 82.3963 18.6649C82.2054 18.108 82.0938 17.4876 82.0938 16.8352C82.0938 16.183 82.1893 15.5784 82.3963 15.0215C82.5872 14.4647 82.8736 13.9874 83.2399 13.5737C83.6056 13.176 84.0668 12.8578 84.6079 12.6351C85.149 12.4123 85.7695 12.285 86.4532 12.285C87.1375 12.285 87.758 12.3964 88.2991 12.6351C88.8397 12.8578 89.2853 13.176 89.6671 13.5737C90.0329 13.9715 90.3192 14.4647 90.5102 15.0215C90.7011 15.5784 90.8126 16.183 90.8126 16.8352C90.8126 17.5035 90.7172 18.108 90.5102 18.6649C90.3037 19.2217 90.0329 19.699 89.6671 20.1127C89.3014 20.5104 88.8397 20.8286 88.2991 21.0514C87.758 21.2741 87.1536 21.4014 86.4532 21.4014ZM86.4532 19.89C86.8672 19.89 87.2491 19.7945 87.551 19.6195C87.8695 19.4445 88.1082 19.2058 88.3146 18.9195C88.5216 18.6331 88.6648 18.2989 88.7603 17.949C88.8557 17.583 88.9035 17.2171 88.9035 16.8352C88.9035 16.4693 88.8557 16.1034 88.7603 15.7375C88.6648 15.3715 88.5216 15.0533 88.3146 14.767C88.1082 14.4806 87.8534 14.2578 87.551 14.0828C87.233 13.9079 86.8672 13.8123 86.4532 13.8123C86.0398 13.8123 85.6579 13.9079 85.3555 14.0828C85.0375 14.2578 84.7988 14.4965 84.5918 14.767C84.3853 15.0533 84.2416 15.3715 84.1462 15.7375C84.0512 16.1034 84.0035 16.4693 84.0035 16.8352C84.0035 17.2171 84.0512 17.583 84.1462 17.949C84.2416 18.3149 84.3853 18.6331 84.5918 18.9195C84.7988 19.2058 85.0535 19.4445 85.3555 19.6195C85.674 19.8104 86.0398 19.89 86.4532 19.89ZM91.3854 12.5237H92.8333V9.91447H94.7424V12.5077H96.4607V13.9237H94.7424V18.5376C94.7424 18.7444 94.7585 18.9035 94.7741 19.0626C94.7902 19.2058 94.8379 19.3331 94.8856 19.4286C94.9494 19.524 95.0449 19.6036 95.1559 19.6513C95.2835 19.699 95.4423 19.7308 95.6654 19.7308C95.7925 19.7308 95.9357 19.7308 96.0628 19.7149C96.1904 19.699 96.3336 19.6831 96.4607 19.6513V21.1309C96.2537 21.1628 96.0472 21.1786 95.8402 21.1946C95.6332 21.2264 95.4423 21.2264 95.2197 21.2264C94.7108 21.2264 94.3129 21.1786 94.0104 21.0832C93.7085 20.9877 93.4699 20.8445 93.2945 20.6695C93.1197 20.4786 93.0081 20.2559 92.9448 19.9854C92.881 19.7149 92.8494 19.3808 92.8333 19.0308V13.9397H91.3854V12.4919V12.5237Z" fill="#1B1B1B"/>
<path d="M23.8645 9.23005H15.13L12.4412 0.925049L9.73647 9.23005L1.00198 9.21412L8.06597 14.353L5.36126 22.658L12.4253 17.5191L19.4892 22.658L16.8005 14.353L23.8645 9.23005Z" fill="#00B67A"/>
<path d="M17.4042 16.2303L16.7996 14.3529L12.4403 17.519L17.4042 16.2303Z" fill="#005128"/>
</svg>
